<?xml version="1.0" encoding="utf-8"?>
<!-- Generator: Adobe Illustrator 16.0.0, SVG Export Plug-In . SVG Version: 6.00 Build 0)  -->
<!DOCTYPE svg PUBLIC "-//W3C//DTD SVG 1.1//EN" "http://www.w3.org/Graphics/SVG/1.1/DTD/svg11.dtd">
<svg version="1.1" xmlns="http://www.w3.org/2000/svg" xmlns:xlink="http://www.w3.org/1999/xlink" x="0px" y="0px" width="200px"
	 height="480px" viewBox="0 0 200 480" enable-background="new 0 0 200 480" xml:space="preserve">
<g id="Layer_5">
	<g>
		<g>
			<path fill="#666666" d="M137.83,384.061c-1.399,2.202-0.8,7.164,1.8,9.729C140.182,392.741,142.181,388.207,137.83,384.061z
				 M145.646,396.506c0.268-2.792-0.314-6.233-2.221-7.373c-0.502,0.834-2.59,4.973,1.065,10.715
				C145.018,399.523,145.48,398.201,145.646,396.506z M130.529,393.849c1.967,1.8,3.987,2.713,6.015,2.713
				c1.816,0,3.131-0.762,3.61-1.09c-1.812-1.527-3.86-2.302-6.084-2.302C132.4,393.169,131.082,393.623,130.529,393.849z
				 M151.098,402.727c0.804-1.991,0.58-4.444-0.668-7.3c-0.866,0.611-4.269,3.52-2.21,10.428
				C148.775,405.57,150.321,404.646,151.098,402.727z M134.976,399.175c1.829,1.583,3.944,2.386,6.294,2.386
				c1.505,0,2.704-0.347,3.253-0.536c-2.246-1.806-4.414-2.722-6.448-2.722C136.471,398.302,135.395,398.897,134.976,399.175z
				 M142.992,408.821c-0.72,0-1.469,0.092-2.229,0.271c0.465,0.954,2.604,4.663,7.626,4.663h0.001c0.713,0,1.462-0.076,2.231-0.221
				C150.049,412.54,147.597,408.821,142.992,408.821z M140.68,403.332c-1.224,0-2.144,0.288-2.541,0.433
				c2.263,3.539,5.02,4.288,6.949,4.288c1.498,0,2.702-0.438,3.192-0.647C145.477,404.047,142.609,403.332,140.68,403.332z
				 M156.069,418.412c1.589-1.624,2.367-4.361,2.319-8.137c-1.088,0.228-5.531,1.651-5.338,9.604
				C153.553,419.845,154.864,419.64,156.069,418.412z M144.477,414.36c-0.637,0-1.137,0.094-1.411,0.164
				c2.683,5.342,6.03,6.15,7.802,6.15c0.439,0,0.78-0.049,0.991-0.09C149.644,415.173,146.293,414.36,144.477,414.36z
				 M153.099,426.732c0.164,0.025,0.423,0.059,0.749,0.059c1.906,0,5.367-1.037,7.289-7.943c-0.234-0.065-0.687-0.17-1.256-0.17
				C158.054,418.677,154.764,419.732,153.099,426.732z M143.601,420.244c-0.097,0-0.188,0.002-0.285,0.004
				c0.392,1.184,2.373,6.178,8.183,6.826C151.166,425.768,149.418,420.244,143.601,420.244z M159.996,427.213
				c-1.002,0-1.95,0.244-2.814,0.725c-1.276,0.709-2.188,1.592-2.996,2.369c-0.806,0.779-1.538,1.463-2.463,1.875
				c0.851-2.729,1.35-5.693,1.398-8.914c0.059-3.669-0.679-7.262-1.871-10.658c0.444-0.004,1.49-0.133,2.393-1.147
				c1.383-1.557,1.859-4.578,1.389-8.745c-0.426,0.098-1.452,0.438-2.355,1.554c-1.354,1.675-1.875,4.45-1.523,8.04
				c-4.299-11.937-14.19-21.287-15.229-22.245c-2.312-4.226-5.9-4.89-7.895-4.89c-0.487,0-0.877,0.043-1.114,0.074
				c2.113,4.563,5.08,5.529,7.22,5.529c0.493,0,0.933-0.051,1.284-0.115c2.543,2.078,17.312,16.237,16.58,32.211
				c-0.157,3.486-0.801,6.621-1.78,9.441c-0.248-0.385-0.52-0.914-0.834-1.545c-0.58-1.164-1.304-2.617-2.207-3.621
				c-1.268-1.41-3.648-1.695-4.45-1.756c1.521,6.314,5.958,6.947,7.472,6.977c-3.146,8.953-9.755,14.666-15.395,18.092
				c0.95-1.816,2.767-6.285-0.729-8.762c-0.625,0.531-3.333,3.326,0.273,9.033c-5.038,2.98-9.187,4.123-9.187,4.123l1.837,1.082
				c10.223-4.305,20.85-11.639,24.659-23.545c0.575,0.199,1.465,0.428,2.543,0.428c2.14,0,5.29-0.896,8.262-5.117
				C162.059,427.535,161.14,427.213,159.996,427.213z M147.448,437.738c-1.2-6.387-3.652-7.35-5.021-7.35
				c-0.263,0-0.479,0.031-0.631,0.068c0.448,0.754,0.657,1.488,0.864,2.197c0.306,1.061,0.597,2.059,1.615,3.129
				C145.604,437.184,146.896,437.611,147.448,437.738z M149.609,437.961c1.355,0.508,2.678,0.766,3.926,0.766
				c4.144,0,6.457-2.846,7.011-3.615c-1.291-0.605-2.576-0.912-3.832-0.912C152.836,434.197,150.258,437.135,149.609,437.961z
				 M140.633,434.66c-0.14,1.07-0.482,5.594,3.358,7.639C144.227,441.092,144.951,436.002,140.633,434.66z M152.383,440.359
				c-2.041,0-4.511,1.152-7.34,3.424c0.392,0.383,1.599,1.35,3.741,1.35c2.134,0,4.571-0.932,7.256-2.768
				C155.756,441.871,154.688,440.359,152.383,440.359z M138.041,438.057c-1.756,6.289,0.559,8.412,1.277,8.9
				c1.504-4.523,1.002-6.723,0.312-7.771C139.086,438.361,138.361,438.125,138.041,438.057z M145.926,446.842
				c-1.61,0-3.438,0.447-5.422,1.328c0.44,0.533,1.911,1.99,4.859,1.99c1.608,0,3.425-0.428,5.396-1.273
				C150.33,448.34,148.877,446.842,145.926,446.842z M139.9,451.359c-1.387,0-3.033,0.201-4.896,0.592
				c0.446,0.725,2.136,2.891,6.357,2.891c1.165,0,2.45-0.164,3.819-0.49c-0.019-0.287-0.118-0.955-0.691-1.576
				C143.629,451.838,142.082,451.359,139.9,451.359z M62.166,384.061c-4.414,4.194-2.375,8.681-1.802,9.73
				C62.962,391.23,63.566,386.263,62.166,384.061z M55.502,399.848c3.657-5.743,1.569-9.881,1.07-10.715
				c-1.908,1.14-2.493,4.58-2.221,7.373C54.516,398.201,54.979,399.523,55.502,399.848z M65.925,393.169
				c-2.225,0-4.271,0.774-6.084,2.302c0.48,0.329,1.79,1.09,3.614,1.09c2.023,0,4.045-0.913,6.011-2.713
				C68.916,393.623,67.599,393.169,65.925,393.169z M51.776,405.854c2.083-6.99-1.325-9.83-2.212-10.433
				c-1.246,2.856-1.472,5.312-0.668,7.303C49.674,404.646,51.218,405.57,51.776,405.854z M61.921,398.302
				c-2.037,0-4.2,0.917-6.45,2.722c0.549,0.189,1.747,0.536,3.254,0.536c2.35,0,4.467-0.802,6.293-2.386
				C64.601,398.897,63.525,398.302,61.921,398.302z M59.236,409.093c-0.764-0.179-1.513-0.271-2.233-0.271
				c-4.601,0-7.056,3.718-7.63,4.713c0.771,0.145,1.521,0.221,2.232,0.221C56.626,413.756,58.766,410.047,59.236,409.093z
				 M61.857,403.765c-0.4-0.146-1.32-0.433-2.544-0.433c-1.929,0-4.794,0.715-7.601,4.073c0.491,0.21,1.697,0.647,3.194,0.647
				C56.837,408.053,59.595,407.303,61.857,403.765z M46.943,419.88c0.193-7.953-4.25-9.377-5.336-9.604
				c-0.049,3.775,0.729,6.513,2.32,8.137C45.131,419.64,46.444,419.845,46.943,419.88z M55.522,414.36
				c-1.82,0-5.172,0.812-7.382,6.225c0.207,0.042,0.548,0.09,0.989,0.09c1.771,0,5.117-0.809,7.8-6.15
				C56.655,414.454,56.158,414.36,55.522,414.36z M46.146,426.791c0.332,0,0.59-0.033,0.752-0.061
				c-1.665-6.999-4.959-8.055-6.783-8.055c-0.571,0-1.021,0.104-1.257,0.17C40.782,425.754,44.243,426.791,46.146,426.791z
				 M48.496,427.076c5.807-0.65,7.79-5.645,8.183-6.828c-0.097-0.002-0.188-0.004-0.283-0.004
				C50.5,420.244,48.813,425.75,48.496,427.076z M52.549,437.738c0.55-0.123,1.831-0.549,3.171-1.953
				c1.022-1.072,1.309-2.07,1.617-3.129c0.202-0.709,0.414-1.445,0.861-2.197c-0.149-0.037-0.369-0.07-0.632-0.07
				C56.201,430.389,53.747,431.354,52.549,437.738z M46.466,438.721v0.004c1.243,0,2.562-0.256,3.918-0.764
				c-0.646-0.826-3.225-3.766-7.101-3.766c-1.253,0-2.544,0.309-3.833,0.912c0.553,0.771,2.865,3.613,7.013,3.613H46.466z
				 M59.363,434.66c-4.38,1.357-3.615,6.424-3.359,7.639C59.846,440.258,59.501,435.73,59.363,434.66z M54.953,443.783
				c-2.832-2.271-5.299-3.424-7.342-3.424c-2.328,0-3.379,1.508-3.658,2.006c2.687,1.836,5.124,2.768,7.257,2.768
				C53.347,445.133,54.559,444.166,54.953,443.783z M61.958,438.057c-0.323,0.068-1.045,0.311-1.586,1.119
				c-0.697,1.045-1.201,3.244,0.305,7.781C61.396,446.469,63.709,444.346,61.958,438.057z M65.925,441.701
				c-3.494,2.475-1.678,6.943-0.728,8.764c-5.638-3.426-12.249-9.137-15.395-18.094c1.514-0.029,5.952-0.662,7.472-6.977
				c-0.803,0.057-3.183,0.346-4.448,1.756c-0.907,1.004-1.629,2.455-2.212,3.621c-0.313,0.631-0.583,1.16-0.832,1.543
				c-0.979-2.82-1.622-5.955-1.78-9.441c-0.732-15.978,14.038-30.133,16.577-32.21c0.355,0.064,0.793,0.115,1.286,0.115
				c2.138,0,5.109-0.965,7.22-5.529c-0.234-0.032-0.625-0.074-1.111-0.074c-1.993,0-5.584,0.664-7.896,4.89
				c-1.039,0.958-10.932,10.312-15.229,22.245c0.348-3.58-0.169-6.354-1.52-8.03c-0.897-1.115-1.933-1.461-2.363-1.561
				c-0.47,4.165,0.01,7.187,1.388,8.743c0.902,1.015,1.948,1.144,2.395,1.147c-1.191,3.396-1.929,6.989-1.871,10.658
				c0.054,3.219,0.546,6.186,1.397,8.914c-0.925-0.414-1.655-1.096-2.461-1.875c-0.809-0.777-1.72-1.658-2.996-2.369
				c-0.865-0.479-1.814-0.725-2.812-0.725c-1.142,0-2.065,0.322-2.466,0.49c2.974,4.221,6.124,5.117,8.259,5.117
				c1.079,0,1.965-0.229,2.542-0.426c3.812,11.904,14.44,19.24,24.66,23.545l1.838-1.084c0,0-4.146-1.141-9.186-4.121
				C69.259,445.027,66.553,442.23,65.925,441.701z M59.493,448.17c-1.986-0.881-3.81-1.328-5.423-1.328
				c-2.939,0-4.399,1.498-4.838,2.043c1.973,0.848,3.787,1.275,5.396,1.275C57.579,450.16,59.05,448.705,59.493,448.17z
				 M55.502,452.773c-0.569,0.623-0.672,1.291-0.689,1.574c1.373,0.33,2.653,0.494,3.818,0.494c4.227,0,5.914-2.166,6.359-2.893
				c-1.864-0.393-3.509-0.592-4.896-0.592C57.913,451.359,56.367,451.838,55.502,452.773z"/>
		</g>
	</g>
</g>
<g id="Layer_4">
	<g>
		<g>
			<path fill="#666666" d="M137.83,24.061c-1.399,2.202-0.8,7.164,1.8,9.729C140.182,32.741,142.181,28.207,137.83,24.061z
				 M145.646,36.506c0.268-2.792-0.314-6.233-2.221-7.373c-0.502,0.834-2.59,4.973,1.065,10.715
				C145.018,39.523,145.48,38.201,145.646,36.506z M130.529,33.849c1.967,1.8,3.987,2.713,6.015,2.713
				c1.816,0,3.131-0.762,3.61-1.09c-1.812-1.527-3.86-2.302-6.084-2.302C132.4,33.169,131.082,33.623,130.529,33.849z
				 M151.098,42.727c0.804-1.991,0.58-4.444-0.668-7.3c-0.866,0.611-4.269,3.52-2.21,10.428
				C148.775,45.57,150.321,44.646,151.098,42.727z M134.976,39.175c1.829,1.583,3.944,2.386,6.294,2.386
				c1.505,0,2.704-0.347,3.253-0.536c-2.246-1.806-4.414-2.722-6.448-2.722C136.471,38.302,135.395,38.897,134.976,39.175z
				 M142.992,48.821c-0.72,0-1.469,0.092-2.229,0.271c0.465,0.954,2.604,4.663,7.626,4.663h0.001c0.713,0,1.462-0.076,2.231-0.221
				C150.049,52.54,147.597,48.821,142.992,48.821z M140.68,43.332c-1.224,0-2.144,0.288-2.541,0.433
				c2.263,3.539,5.02,4.288,6.949,4.288c1.498,0,2.702-0.438,3.192-0.647C145.477,44.047,142.609,43.332,140.68,43.332z
				 M156.069,58.412c1.589-1.624,2.367-4.361,2.319-8.137c-1.088,0.228-5.531,1.651-5.338,9.604
				C153.553,59.845,154.864,59.64,156.069,58.412z M144.477,54.36c-0.637,0-1.137,0.094-1.411,0.164
				c2.683,5.342,6.03,6.15,7.802,6.15c0.439,0,0.78-0.049,0.991-0.09C149.644,55.173,146.293,54.36,144.477,54.36z M153.099,66.732
				c0.164,0.025,0.423,0.059,0.749,0.059c1.906,0,5.367-1.037,7.289-7.943c-0.234-0.065-0.687-0.17-1.256-0.17
				C158.054,58.677,154.764,59.732,153.099,66.732z M143.601,60.244c-0.097,0-0.188,0.002-0.285,0.004
				c0.392,1.184,2.373,6.178,8.183,6.826C151.166,65.768,149.418,60.244,143.601,60.244z M159.996,67.213
				c-1.002,0-1.95,0.244-2.814,0.725c-1.276,0.709-2.188,1.592-2.996,2.369c-0.806,0.779-1.538,1.463-2.463,1.875
				c0.851-2.729,1.35-5.693,1.398-8.914c0.059-3.669-0.679-7.262-1.871-10.658c0.444-0.004,1.49-0.133,2.393-1.147
				c1.383-1.557,1.859-4.578,1.389-8.745c-0.426,0.098-1.452,0.438-2.355,1.554c-1.354,1.675-1.875,4.45-1.523,8.04
				c-4.299-11.937-14.19-21.287-15.229-22.245c-2.312-4.226-5.9-4.89-7.895-4.89c-0.487,0-0.877,0.043-1.114,0.074
				c2.113,4.563,5.08,5.529,7.22,5.529c0.493,0,0.933-0.051,1.284-0.115c2.543,2.078,17.312,16.237,16.58,32.211
				c-0.157,3.486-0.801,6.621-1.78,9.441c-0.248-0.385-0.52-0.914-0.834-1.545c-0.58-1.164-1.304-2.617-2.207-3.621
				c-1.268-1.41-3.648-1.695-4.45-1.756c1.521,6.314,5.958,6.947,7.472,6.977c-3.146,8.953-9.755,14.666-15.395,18.092
				c0.95-1.816,2.767-6.285-0.729-8.762c-0.625,0.531-3.333,3.326,0.273,9.033c-5.038,2.98-9.187,4.123-9.187,4.123l1.837,1.082
				c10.223-4.305,20.85-11.639,24.659-23.545c0.575,0.199,1.465,0.428,2.543,0.428c2.14,0,5.29-0.896,8.262-5.117
				C162.059,67.535,161.14,67.213,159.996,67.213z M147.448,77.738c-1.2-6.387-3.652-7.35-5.021-7.35
				c-0.263,0-0.479,0.031-0.631,0.068c0.448,0.754,0.657,1.488,0.864,2.197c0.306,1.061,0.597,2.059,1.615,3.129
				C145.604,77.184,146.896,77.611,147.448,77.738z M149.609,77.961c1.355,0.508,2.678,0.766,3.926,0.766
				c4.144,0,6.457-2.846,7.011-3.615c-1.291-0.605-2.576-0.912-3.832-0.912C152.836,74.197,150.258,77.135,149.609,77.961z
				 M140.633,74.66c-0.14,1.07-0.482,5.594,3.358,7.639C144.227,81.092,144.951,76.002,140.633,74.66z M152.383,80.359
				c-2.041,0-4.511,1.152-7.34,3.424c0.392,0.383,1.599,1.35,3.741,1.35c2.134,0,4.571-0.932,7.256-2.768
				C155.756,81.871,154.688,80.359,152.383,80.359z M138.041,78.057c-1.756,6.289,0.559,8.412,1.277,8.9
				c1.504-4.523,1.002-6.723,0.312-7.771C139.086,78.361,138.361,78.125,138.041,78.057z M145.926,86.842
				c-1.61,0-3.438,0.447-5.422,1.328c0.44,0.533,1.911,1.99,4.859,1.99c1.608,0,3.425-0.428,5.396-1.273
				C150.33,88.34,148.877,86.842,145.926,86.842z M139.9,91.359c-1.387,0-3.033,0.201-4.896,0.592
				c0.446,0.725,2.136,2.891,6.357,2.891c1.165,0,2.45-0.164,3.819-0.49c-0.019-0.287-0.118-0.955-0.691-1.576
				C143.629,91.838,142.082,91.359,139.9,91.359z M62.166,24.061c-4.414,4.194-2.375,8.681-1.802,9.73
				C62.962,31.23,63.566,26.263,62.166,24.061z M55.502,39.848c3.657-5.743,1.569-9.881,1.07-10.715
				c-1.908,1.14-2.493,4.58-2.221,7.373C54.516,38.201,54.979,39.523,55.502,39.848z M65.925,33.169
				c-2.225,0-4.271,0.774-6.084,2.302c0.48,0.329,1.79,1.09,3.614,1.09c2.023,0,4.045-0.913,6.011-2.713
				C68.916,33.623,67.599,33.169,65.925,33.169z M51.776,45.854c2.083-6.99-1.325-9.83-2.212-10.433
				c-1.246,2.856-1.472,5.312-0.668,7.303C49.674,44.646,51.218,45.57,51.776,45.854z M61.921,38.302c-2.037,0-4.2,0.917-6.45,2.722
				c0.549,0.189,1.747,0.536,3.254,0.536c2.35,0,4.467-0.802,6.293-2.386C64.601,38.897,63.525,38.302,61.921,38.302z
				 M59.236,49.093c-0.764-0.179-1.513-0.271-2.233-0.271c-4.601,0-7.056,3.718-7.63,4.713c0.771,0.145,1.521,0.221,2.232,0.221
				C56.626,53.756,58.766,50.047,59.236,49.093z M61.857,43.765c-0.4-0.146-1.32-0.433-2.544-0.433
				c-1.929,0-4.794,0.715-7.601,4.073c0.491,0.21,1.697,0.647,3.194,0.647C56.837,48.053,59.595,47.303,61.857,43.765z
				 M46.943,59.88c0.193-7.953-4.25-9.377-5.336-9.604c-0.049,3.775,0.729,6.513,2.32,8.137
				C45.131,59.64,46.444,59.845,46.943,59.88z M55.522,54.36c-1.82,0-5.172,0.812-7.382,6.225c0.207,0.042,0.548,0.09,0.989,0.09
				c1.771,0,5.117-0.809,7.8-6.15C56.655,54.454,56.158,54.36,55.522,54.36z M46.146,66.791c0.332,0,0.59-0.033,0.752-0.061
				c-1.665-6.999-4.959-8.055-6.783-8.055c-0.571,0-1.021,0.104-1.257,0.17C40.782,65.754,44.243,66.791,46.146,66.791z
				 M48.496,67.076c5.807-0.65,7.79-5.645,8.183-6.828c-0.097-0.002-0.188-0.004-0.283-0.004
				C50.5,60.244,48.813,65.75,48.496,67.076z M52.549,77.738c0.55-0.123,1.831-0.549,3.171-1.953
				c1.022-1.072,1.309-2.07,1.617-3.129c0.202-0.709,0.414-1.445,0.861-2.197c-0.149-0.037-0.369-0.07-0.632-0.07
				C56.201,70.389,53.747,71.354,52.549,77.738z M46.466,78.721v0.004c1.243,0,2.562-0.256,3.918-0.764
				c-0.646-0.826-3.225-3.766-7.101-3.766c-1.253,0-2.544,0.309-3.833,0.912c0.553,0.771,2.865,3.613,7.013,3.613H46.466z
				 M59.363,74.66c-4.38,1.357-3.615,6.424-3.359,7.639C59.846,80.258,59.501,75.73,59.363,74.66z M54.953,83.783
				c-2.832-2.271-5.299-3.424-7.342-3.424c-2.328,0-3.379,1.508-3.658,2.006c2.687,1.836,5.124,2.768,7.257,2.768
				C53.347,85.133,54.559,84.166,54.953,83.783z M61.958,78.057c-0.323,0.068-1.045,0.311-1.586,1.119
				c-0.697,1.045-1.201,3.244,0.305,7.781C61.396,86.469,63.709,84.346,61.958,78.057z M65.925,81.701
				c-3.494,2.475-1.678,6.943-0.728,8.764c-5.638-3.426-12.249-9.137-15.395-18.094c1.514-0.029,5.952-0.662,7.472-6.977
				c-0.803,0.057-3.183,0.346-4.448,1.756c-0.907,1.004-1.629,2.455-2.212,3.621c-0.313,0.631-0.583,1.16-0.832,1.543
				c-0.979-2.82-1.622-5.955-1.78-9.441C47.27,46.896,62.04,32.74,64.579,30.663c0.355,0.064,0.793,0.115,1.286,0.115
				c2.138,0,5.109-0.965,7.22-5.529c-0.234-0.032-0.625-0.074-1.111-0.074c-1.993,0-5.584,0.664-7.896,4.89
				c-1.039,0.958-10.932,10.312-15.229,22.245c0.348-3.58-0.169-6.354-1.52-8.03c-0.897-1.115-1.933-1.461-2.363-1.561
				c-0.47,4.165,0.01,7.187,1.388,8.743c0.902,1.015,1.948,1.144,2.395,1.147c-1.191,3.396-1.929,6.989-1.871,10.658
				c0.054,3.219,0.546,6.186,1.397,8.914c-0.925-0.414-1.655-1.096-2.461-1.875c-0.809-0.777-1.72-1.658-2.996-2.369
				c-0.865-0.479-1.814-0.725-2.812-0.725c-1.142,0-2.065,0.322-2.466,0.49c2.974,4.221,6.124,5.117,8.259,5.117
				c1.079,0,1.965-0.229,2.542-0.426c3.812,11.904,14.44,19.24,24.66,23.545l1.838-1.084c0,0-4.146-1.141-9.186-4.121
				C69.259,85.027,66.553,82.23,65.925,81.701z M59.493,88.17c-1.986-0.881-3.81-1.328-5.423-1.328
				c-2.939,0-4.399,1.498-4.838,2.043c1.973,0.848,3.787,1.275,5.396,1.275C57.579,90.16,59.05,88.705,59.493,88.17z M55.502,92.773
				c-0.569,0.623-0.672,1.291-0.689,1.574c1.373,0.33,2.653,0.494,3.818,0.494c4.227,0,5.914-2.166,6.359-2.893
				c-1.864-0.393-3.509-0.592-4.896-0.592C57.913,91.359,56.367,91.838,55.502,92.773z"/>
		</g>
	</g>
</g>
<g id="Layer_3">
	<g>
		<g>
			<linearGradient id="SVGID_1_" gradientUnits="userSpaceOnUse" x1="67.4546" y1="203.043" x2="132.4811" y2="157.5109">
				<stop  offset="0" style="stop-color:#E30613;stop-opacity:0.5"/>
				<stop  offset="1" style="stop-color:#E30613;stop-opacity:0.1"/>
			</linearGradient>
			<path fill="url(#SVGID_1_)" d="M62.51,171.101c0.036-0.232,0.078-0.468,0.128-0.708c0.049-0.239,0.106-0.483,0.171-0.73
				c0.649-2.507,1.759-5.14,3.53-8.091c1.95-3.25,3.435-4.907,6.128-7.541c2.672-2.611,4.452-4.512,7.682-6.883
				c1.965-1.441,6.758-4.463,9.592-4.851c1.131-0.155-2.571,0.124-4.021,0.807c-1.957,0.924-3.011,1.465-4.825,2.595
				c-5.448,3.394-8.686,5.178-12.68,10.07c-1.601,1.96-2.546,3.088-3.661,5.36c-0.554,1.132-1.212,2.997-1.212,2.997l-0.277,2.093
				l-0.433,2.831l-0.213,2.536l-0.036,0.861c0.007-0.216,0.021-0.438,0.042-0.662C62.446,171.562,62.474,171.333,62.51,171.101z
				 M66.353,178.196c1.697-3.278,3.938-6.62,6.566-9.853c2.604-3.201,5.612-6.322,8.886-9.196c3.273-2.872,6.844-5.524,10.59-7.787
				c3.035-1.833,5.974-3.284,8.751-4.356c2.812-1.088,5.471-1.792,7.9-2.108c2.469-0.322,4.707-0.246,6.627,0.238
				c1.959,0.494,3.588,1.413,4.791,2.769l-2.07-2.151l-2.195-1.943l-1.113-0.869l-2.508-1.001c-1.363-0.433-3.039-1.055-4.85-1.313
				c-1.732-0.248-4.434-0.598-6.566-0.145c-2.102,0.446-3.504,0.939-5.892,1.958c-2.362,1.007-4.847,2.298-7.41,3.871
				c-3.559,2.185-6.961,4.729-10.089,7.472c-3.13,2.744-6.012,5.711-8.516,8.745c-2.526,3.06-4.688,6.211-6.336,9.287
				c-1.677,3.127-2.381,6.21-2.853,9.049c-0.092,0.556-0.011,1.08-0.049,1.6c-0.037,0.52,0.446,3.814,1.016,6.197
				c0.244,1.018,0.365,1.6,0.704,2.588c0.398,1.16,1.242,2.889,1.242,2.889l0.418,0.738l0.935,1.527
				c-0.345-0.535-0.634-1.117-0.865-1.746c-0.229-0.623-0.402-1.295-0.515-2.008c-0.111-0.709-0.166-1.463-0.159-2.26
				c0.006-0.789,0.074-1.621,0.203-2.494C63.447,184.826,64.625,181.531,66.353,178.196z M76.01,208.158
				c-0.623-0.969-1.09-2.076-1.391-3.316c-0.297-1.229-0.43-2.584-0.387-4.066c0.09-3.051,0.92-6.357,2.329-9.723
				c1.386-3.314,3.343-6.711,5.728-10.01c2.364-3.271,5.167-6.472,8.284-9.431c3.116-2.956,6.573-5.696,10.258-8.047
				c3.682-2.349,7.277-4.105,10.65-5.276c3.426-1.189,7.922-2.064,10.771-2.045c2.91,0.021,5.447,0.676,7.432,1.987
				c2.031,1.345,2.418,3.604,3.088,6.348l1.064-0.226l-3.414-9.032l-0.885-1.976c-1.189-2.002-3.148-3.309-5.383-4.121
				c-2.184-0.794-6.076-0.747-8.982-0.446c-2.85,0.294-5.992,1.106-9.309,2.426c-3.268,1.299-6.722,3.098-10.257,5.395
				c-3.935,2.558-7.637,5.516-10.985,8.69c-3.35,3.176-6.377,6.599-8.947,10.087c-2.594,3.521-4.744,7.136-6.297,10.657
				c-1.579,3.582-2.553,7.094-2.741,10.328c-0.072,1.221-0.029,2.361,0.122,3.42c0.152,1.066,0.415,2.049,0.781,2.943
				c0.37,0.902,0.847,1.715,1.421,2.436c0.582,0.727,1.264,1.359,2.041,1.895l2.684,1.709l2.556,1.365l2.832,1.248l1.63,0.58
				c-0.859-0.344-1.644-0.777-2.346-1.297C77.426,209.975,76.639,209.135,76.01,208.158z M139.099,172.886
				c-1.016-1.923-2.057-2.653-3.732-3.78c-1.924-1.293-5.609-2.139-8.447-2.197c-2.787-0.057-5.936,0.473-9.287,1.581
				c-3.307,1.094-6.83,2.755-10.424,4.987c-3.57,2.217-6.901,4.805-9.891,7.597c-2.99,2.794-5.658,5.813-7.885,8.896
				c-2.245,3.105-4.056,6.295-5.301,9.396c-1.264,3.145-1.952,6.219-1.914,9.039c0.024,1.768,0.332,3.336,0.895,4.695
				c0.57,1.373,1.401,2.535,2.464,3.469c1.077,0.945,2.357,1.713,3.907,2.062c1.593,0.361,3.177,0.625,5.2,0.713l0.422-0.01
				l2.999-0.191l2.93-0.373l1.453-0.256l2.678-0.6l2.588-0.738l0.709-0.229l1.172-0.428c1.19,0.294,2.56,0.377,4.084,0.193
				c1.801-0.213,3.709-1.252,5.812-2.189c2.113-0.938,3.732-2.281,5.557-3.688c1.82-1.406,3.424-2.914,4.768-4.566
				c1.336-1.645,2.676-2.912,3.48-4.531c0.969-1.953,1.42-3.379,1.311-4.854c-0.105-1.459-0.863-2.619-1.705-3.51
				c-0.83-0.881-2.055-1.357-3.43-1.656c-1.361-0.297-2.949-0.303-4.686-0.004c-1.723,0.295-3.596,0.891-5.543,1.803
				c-1.939,0.908-3.779,2.049-5.453,3.336c-1.672,1.287-3.184,2.727-4.463,4.232c-1.283,1.514-2.338,3.102-3.086,4.676
				c-0.754,1.588-1.199,3.17-1.256,4.652c-0.057,1.504,0.291,2.77,0.973,3.768c0.691,1.006,1.723,1.744,3.027,2.18
				c0.191,0.063,0.401,0.106,0.604,0.156c-2.088,0.73-4.074,1.188-5.901,1.365c-2.289,0.221-4.33,0.012-6.042-0.594
				c-1.687-0.598-3.05-1.582-4.011-2.934c-0.948-1.328-1.505-3.012-1.602-5.021c-0.108-2.258,0.375-4.725,1.332-7.252
				c0.946-2.5,2.36-5.072,4.135-7.574c1.766-2.49,3.896-4.926,6.297-7.17c2.402-2.246,5.086-4.314,7.967-6.072
				c2.898-1.769,5.738-3.062,8.402-3.89c2.693-0.836,5.217-1.198,7.445-1.085c2.26,0.115,4.223,0.72,5.74,1.819
				c1.545,1.118,2.633,2.749,3.111,4.897c0.238-0.662,1.664-1.152,1.852-1.823c0.186-0.673,0.35-1.349,0.484-2.027
				c0.137-0.681,0.545-4.407,0.578-5.099C139.274,173.658,139.315,173.296,139.099,172.886z M114.589,206.822
				c0.348-0.77,0.852-1.547,1.471-2.289c0.619-0.74,1.354-1.447,2.172-2.076c0.818-0.631,1.721-1.186,2.672-1.623
				c0.953-0.438,1.865-0.715,2.703-0.844c0.84-0.129,1.604-0.107,2.256,0.055c0.652,0.166,1.191,0.475,1.576,0.916
				c0.389,0.447,0.619,1.029,0.652,1.738c0.035,0.713-0.133,1.486-0.467,2.275c-0.336,0.793-0.838,1.598-1.469,2.369
				c-0.633,0.773-1.395,1.514-2.248,2.172c-0.854,0.656-1.793,1.229-2.783,1.674c-0.988,0.443-1.93,0.711-2.785,0.822
				c-0.854,0.109-1.617,0.061-2.258-0.137c-0.639-0.193-1.15-0.533-1.504-1.006c-0.35-0.475-0.541-1.072-0.539-1.793
				C114.042,208.361,114.237,207.596,114.589,206.822z"/>
		</g>
	</g>
	<g>
		<g>
			<path fill="#E30613" d="M71.125,160.473c1.183,0.46,2.753,0.667,4.644,0.589c1.908-0.078,4.136-0.446,6.606-1.137
				c2.483-0.692,4.963-1.64,7.313-2.757c2.348-1.116,4.554-2.397,6.495-3.757c1.931-1.352,3.59-2.774,4.863-4.184
				c1.26-1.396,2.137-2.775,2.522-4.055c0.306-1.016,0.278-1.892-0.036-2.616c-0.311-0.719-0.904-1.289-1.734-1.707
				c-0.821-0.413-1.876-0.676-3.123-0.778c-1.236-0.103-2.611-0.124-4.241,0.168c-1.402,0.25-2.447,0.529-3.972,1.008
				c-2.357,0.741-3.663,1.279-5.858,2.417c0.718-0.33,1.146-0.497,1.895-0.718c1.159-0.344,2.207-0.42,3.102-0.589
				c0.918-0.176,1.691-0.214,2.317-0.045c0.629,0.171,1.087,0.463,1.332,0.867c0.248,0.406,0.281,0.927,0.061,1.551
				c-0.223,0.629-0.68,1.302-1.32,1.982c-0.642,0.682-1.467,1.37-2.416,2.023c-0.953,0.655-2.028,1.274-3.17,1.816
				s-2.347,1.007-3.554,1.354c-1.205,0.346-2.296,0.541-3.238,0.6c-0.937,0.058-1.722-0.021-2.321-0.226
				c-0.596-0.201-1.008-0.525-1.2-0.958c-0.193-0.43-0.169-0.968,0.102-1.6c0.269-0.629,0.744-1.274,1.327-2.012
				c1.039-1.315,3.143-2.929,3.143-2.929l-1.039,0.59l-1.048,0.639l-1.083,0.706l-1.097,0.769l-1.099,0.827l-1.158,0.939
				l-1.18,1.033c-0.438,0.399-0.85,0.8-1.231,1.201c-0.383,0.402-0.736,0.807-1.055,1.208c-0.321,0.402-0.609,0.805-0.861,1.203
				c-0.252,0.399-0.468,0.795-0.645,1.187c-0.583,1.295-0.677,2.408-0.338,3.313C69.17,159.315,69.957,160.018,71.125,160.473z
				 M132.25,202.19c-2.1,2.377-4.692,4.669-7.65,6.766c-2.975,2.106-6.301,4.005-9.836,5.578c-3.533,1.571-7.251,2.811-11.007,3.611
				c-1.64,0.35-3.221,0.602-4.739,0.761c-1.511,0.159-2.958,0.227-4.33,0.208c-1.365-0.017-2.656-0.121-3.864-0.305
				c-1.201-0.185-2.411-0.528-3.339-0.888l0.358,0.172l1.314,0.443c0,0,1.585,0.421,2.61,0.631c1.008,0.211,1.583,0.305,2.602,0.451
				c0.268,0.035,0.687,0.09,0.687,0.09l2.454,0.221l2.412,0.068l0.497-0.004l2.255-0.097c0.369-0.026,0.743-0.059,1.122-0.101
				s0.763-0.091,1.151-0.146c0.39-0.055,0.782-0.119,1.181-0.19s0.802-0.149,1.209-0.233c2.066-0.438,4.115-1.046,6.109-1.794
				c1.996-0.751,3.93-1.642,5.765-2.643c1.831-1,3.559-2.107,5.144-3.296c1.58-1.183,3.016-2.439,4.271-3.741l1.217-1.322
				c0,0,0.908-1.052,1.457-1.751c0.193-0.248,0.49-0.641,0.49-0.641s0.895-1.148,1.35-1.957c0.49-0.871,1.033-2.348,1.033-2.348
				s0.032-0.063,0.01-0.032C133.574,200.622,132.977,201.367,132.25,202.19z M65.884,180.188c2.104,0.765,4.781,1.139,7.942,1.065
				c3.208-0.074,6.898-0.607,10.964-1.655c4.546-1.172,9.09-2.862,13.382-4.909c4.291-2.046,8.29-4.428,11.767-6.976
				c3.445-2.524,6.35-5.191,8.509-7.835c2.122-2.602,3.51-5.164,3.984-7.536c0.179-0.898,0.221-1.736,0.135-2.513
				c-0.085-0.768-0.296-1.476-0.62-2.12c-0.322-0.639-0.757-1.216-1.295-1.73c-0.533-0.509-1.168-0.956-1.896-1.341l-0.915-0.477
				l-2.599-1.193l-2.636-0.993c0,0-1.326-0.461-2.188-0.71c-0.599-0.172-1.546-0.405-1.546-0.405
				c-0.314-0.079-0.551-0.123-0.969-0.185l0.969,0.261c0.65,0.183,1.243,0.41,1.771,0.679c0.789,0.401,1.436,0.896,1.924,1.482
				c0.493,0.593,0.824,1.277,0.973,2.054c0.15,0.783,0.115,1.658-0.124,2.623c-0.464,1.864-1.649,3.878-3.408,5.923
				c-1.782,2.072-4.145,4.164-6.92,6.15c-2.796,1.999-5.994,3.878-9.411,5.506c-3.418,1.627-7.03,2.99-10.646,3.963
				c-3.588,0.966-6.813,1.446-9.562,1.495c-2.713,0.048-4.95-0.326-6.614-1.066c-1.638-0.73-2.718-1.812-3.162-3.195
				c-0.429-1.34-0.26-2.961,0.58-4.82c0,0,0.067-0.147,0.035-0.078l0.147-0.377l-0.886,1.862l-0.967,2.284l-0.938,2.7l-0.752,2.794
				l-0.185,0.841c-0.414,1.977-0.158,3.696,0.703,5.113C62.309,178.312,63.818,179.437,65.884,180.188z M80.32,201.432
				c3.292-0.119,6.94-0.622,10.87-1.544c5.517-1.296,11.013-3.282,16.185-5.757c5.17-2.471,9.957-5.401,14.081-8.573
				c4.079-3.136,7.47-6.476,9.929-9.813c2.412-3.271,3.912-6.514,4.296-9.539c0.075-0.585,0.106-1.15,0.096-1.697
				c-0.01-0.543-0.062-1.067-0.151-1.571c-0.09-0.502-0.22-0.983-0.386-1.445c-0.164-0.459-0.366-0.899-0.603-1.318l-0.796-1.349
				l-1.779-2.642l-1.958-2.462l-0.248-0.284l-1.629-1.712v0.009c0.26,0.298,0.493,0.602,0.702,0.93
				c0.339,0.532,0.608,1.105,0.806,1.717c0.197,0.616,0.32,1.271,0.363,1.965c0.045,0.699,0.008,1.438-0.115,2.215
				c-0.439,2.769-1.928,5.753-4.268,8.775c-2.385,3.079-5.637,6.176-9.526,9.095c-3.931,2.952-8.474,5.694-13.364,8.029
				c-4.894,2.338-10.083,4.241-15.282,5.521c-4.153,1.021-7.965,1.559-11.344,1.659c-3.331,0.099-6.226-0.229-8.611-0.928
				c-2.343-0.688-4.188-1.734-5.476-3.088c-1.148-1.207-1.839-2.657-2.058-4.315c0,0-0.029-0.165-0.007,0l0.172,1.739l0.123,0.87
				l0.599,3.088l0.851,3.063l0.623,1.79c0.616,1.642,1.714,3.058,3.255,4.208c1.57,1.172,3.596,2.066,6.032,2.643
				C74.178,201.295,77.069,201.55,80.32,201.432z M139.764,176.717c-0.094-0.986-0.35-2.518-0.35-2.518s-0.443-1.733-0.408-1.407
				c0.033,0.293,0.082,0.642,0.071,0.962c-0.01,0.322-0.032,0.65-0.069,0.984c-0.333,3.091-1.77,6.385-4.108,9.69
				c-2.386,3.371-5.692,6.729-9.685,9.861c-4.035,3.169-8.732,6.077-13.815,8.512c-5.087,2.437-10.503,4.369-15.954,5.595
				c-3.394,0.763-6.58,1.203-9.512,1.344c-2.899,0.141-5.54-0.012-7.882-0.426c-2.312-0.408-4.326-1.071-6.009-1.96
				c-1.439-0.76-2.586-1.682-3.519-2.75c0,0,0.828,1.101,1.4,1.77c0.8,0.932,2.177,2.275,2.177,2.275l2.019,1.824l2.42,1.885
				c1.152,0.816,2.518,1.499,4.079,2.03c1.578,0.534,3.353,0.913,5.305,1.117c1.972,0.207,4.122,0.24,6.426,0.078
				c2.322-0.162,4.797-0.519,7.399-1.085c5.02-1.092,9.996-2.85,14.659-5.084c4.661-2.235,8.96-4.923,12.653-7.865
				c3.654-2.914,6.682-6.052,8.863-9.223c2.145-3.112,3.141-5.365,3.756-9.188C140.079,180.667,140.002,179.211,139.764,176.717z"/>
		</g>
	</g>
</g>
<g id="Layer_6">
	<path fill="#E30613" d="M62,262v76h76v-76H62z M91.003,322.684H78.304V294.11h12.699V322.684z M84.535,291.89
		c-4.026,0-7.288-3.264-7.288-7.287s3.262-7.286,7.288-7.286c4.025,0,7.288,3.263,7.288,7.286S88.56,291.89,84.535,291.89z
		 M106.878,322.684H94.179v-44.448h12.699V322.684z M122.753,306.81h-12.7V294.11h12.7V306.81z M122.753,290.936h-12.7v-12.7h12.7
		V290.936z"/>
	<g>
	</g>
	<g>
	</g>
	<g>
	</g>
	<g>
	</g>
	<g>
	</g>
	<g>
	</g>
	<g>
	</g>
	<g>
	</g>
	<g>
	</g>
	<g>
	</g>
	<g>
	</g>
	<g>
	</g>
	<g>
	</g>
	<g>
	</g>
	<g>
	</g>
</g>
</svg>
