<?xml version="1.0" encoding="utf-8"?>
<!-- Generator: Adobe Illustrator 16.0.0, SVG Export Plug-In . SVG Version: 6.00 Build 0)  -->
<!DOCTYPE svg PUBLIC "-//W3C//DTD SVG 1.1//EN" "http://www.w3.org/Graphics/SVG/1.1/DTD/svg11.dtd">
<svg version="1.1" id="Layer_1" xmlns="http://www.w3.org/2000/svg" xmlns:xlink="http://www.w3.org/1999/xlink" x="0px" y="0px"
	 width="60px" height="1900px" viewBox="0 0 60 1900" enable-background="new 0 0 60 1900" xml:space="preserve">
<g>
	<g>
		<path fill="#FFFFFF" d="M44.034,1215.191l-1.514,0.83c-3.516,2.377-5.778,4.118-6.787,5.225
			c-3.125,3.223-4.688,6.576-4.688,10.059c0,1.889,0.537,3.516,1.611,4.883s2.457,2.051,4.15,2.051c1.432,0,2.652-0.406,3.662-1.221
			c1.009-0.813,1.514-1.969,1.514-3.467c0-0.943-0.188-1.709-0.562-2.295c-0.375-0.586-1.099-1.416-2.173-2.49l-0.928-0.928
			c-0.358-0.357-0.595-0.724-0.708-1.099c-0.114-0.374-0.171-0.772-0.171-1.196c0-1.465,0.862-3.06,2.588-4.785
			c0.977-0.977,2.62-2.295,4.932-3.955L44.034,1215.191z M14.5,1527.502c0,0.174,0.069,0.312,0.174,0.451l14.377,14.378
			c0.243,0.243,0.66,0.243,0.903,0l14.377-14.378c0.243-0.243,0.243-0.659,0-0.902l-4.376-4.376c-0.243-0.243-0.659-0.243-0.902,0
			l-9.551,9.55l-9.55-9.55c-0.243-0.243-0.66-0.243-0.903,0l-4.375,4.376C14.569,1527.189,14.5,1527.328,14.5,1527.502z
			 M37.129,821.12H18.375c-1.042,0-1.875,0.833-1.875,1.875v15.003c0,1.042,0.833,1.875,1.875,1.875h18.753
			c1.042,0,1.876-0.833,1.876-1.875v-4.758l6.425,6.459c0.139,0.104,0.277,0.174,0.451,0.174c0.069,0,0.174,0,0.243-0.035
			c0.243-0.104,0.382-0.347,0.382-0.59v-17.503c0-0.243-0.139-0.486-0.382-0.59c-0.243-0.07-0.521-0.035-0.694,0.139l-6.425,6.459
			v-4.758C39.005,821.954,38.171,821.12,37.129,821.12z M17.25,1019.245l3.82,15.454c0.174,0.834,0.938,1.424,1.806,1.424h14.968
			c0.868,0,1.598-0.59,1.807-1.424l3.819-12.814c0.07-0.174,0.035-0.383-0.104-0.521c-0.104-0.139-0.312-0.243-0.486-0.243H21.592
			l-1.042-4.202c-0.208-0.833-0.972-1.424-1.84-1.424h-3.334c-1.042,0-1.875,0.834-1.875,1.875c0,1.042,0.833,1.876,1.875,1.876
			H17.25z M12.5,941c0,2.5,2.657,4,5.907,3.344c3.251-0.625,5.908-3.219,5.908-6.595v-10.127l12.377-2.813v6.751H35.88
			c-0.688,0-1.47,0.094-2.282,0.25c-3.25,0.625-5.907,3.344-5.907,5.813c0,2.5,2.657,4.001,5.907,3.345
			c3.251-0.626,5.907-3.22,5.907-6.596V918.87c0-0.938-0.75-1.532-1.656-1.344l-14.69,3.22c-0.906,0.219-1.656,1.125-1.656,2.063
			v12.127h-0.813c-0.688,0-1.469,0.094-2.282,0.25C15.157,935.811,12.5,938.53,12.5,941z M15.294,1231.305
			c0,2.019,0.553,3.679,1.66,4.98c1.106,1.303,2.474,1.953,4.102,1.953c1.692,0,2.979-0.472,3.857-1.416
			c0.879-0.943,1.318-2.002,1.318-3.174c0-0.977-0.212-1.798-0.635-2.466c-0.423-0.667-1.123-1.473-2.1-2.417l-0.928-0.928
			c-0.293-0.293-0.521-0.643-0.684-1.05c-0.163-0.406-0.244-0.838-0.244-1.294c0-1.399,0.895-2.994,2.686-4.785
			c1.042-1.041,2.653-2.344,4.834-3.906l-0.928-1.611l-1.465,0.83c-4.265,2.832-7.243,5.339-8.936,7.52
			C16.14,1225.723,15.294,1228.311,15.294,1231.305z M28.503,1042.374c0-1.736-1.389-3.125-3.125-3.125s-3.126,1.389-3.126,3.125
			c0,1.737,1.39,3.126,3.126,3.126S28.503,1044.111,28.503,1042.374z M18.501,1125.495c0,2.126,0.542,4.168,1.542,5.876
			l9.794,17.754c0.125,0.208,0.375,0.375,0.667,0.375c0.25,0,0.541-0.167,0.666-0.375l9.794-17.754
			c0.959-1.708,1.542-3.75,1.542-5.876c0-6.626-5.376-12.002-12.002-12.002C23.877,1113.493,18.501,1118.869,18.501,1125.495z
			 M30.504,1120.994c2.5,0,4.501,2.001,4.501,4.501c0,2.501-2.001,4.501-4.501,4.501c-2.501,0-4.501-2-4.501-4.501
			C26.002,1122.995,28.003,1120.994,30.504,1120.994z M43.881,1427.554H17.125c-0.347,0-0.625,0.277-0.625,0.625v4.637
			c0,0.348,0.278,0.625,0.625,0.625h26.756c0.347,0,0.625-0.277,0.625-0.625v-4.637
			C44.506,1427.831,44.228,1427.554,43.881,1427.554z M19.953,1638.325l9.55-9.55l9.551,9.55c0.243,0.243,0.659,0.243,0.902,0
			l4.376-4.376c0.243-0.243,0.243-0.659,0-0.902l-14.377-14.378c-0.243-0.243-0.66-0.243-0.903,0l-14.377,14.378
			c-0.104,0.139-0.174,0.277-0.174,0.451s0.069,0.312,0.174,0.451l4.375,4.376C19.292,1638.568,19.709,1638.568,19.953,1638.325z
			 M38.505,1042.374c0-1.736-1.39-3.125-3.126-3.125s-3.125,1.389-3.125,3.125c0,1.737,1.389,3.126,3.125,3.126
			S38.505,1044.111,38.505,1042.374z M32.821,1316.494h-4.637c-0.348,0-0.625,0.278-0.625,0.625v10.435H17.125
			c-0.347,0-0.625,0.277-0.625,0.625v4.637c0,0.348,0.278,0.625,0.625,0.625h10.434v10.435c0,0.348,0.278,0.625,0.625,0.625h4.637
			c0.348,0,0.625-0.277,0.625-0.625v-10.435h10.435c0.347,0,0.625-0.277,0.625-0.625v-4.637c0-0.348-0.278-0.625-0.625-0.625H33.446
			v-10.435C33.446,1316.772,33.169,1316.494,32.821,1316.494z M49.069,130.498l-0.088-0.132c0,0-8.098-12.103-18.792-12.103
			c-10.695,0-18.881,12.235-18.881,12.235c-0.176,0.264-0.176,0.616,0,0.88c0,0,8.186,12.235,18.881,12.235
			c10.694,0,18.88-12.235,18.88-12.235C49.246,131.114,49.246,130.762,49.069,130.498z M30.189,138.067
			c-3.961,0-7.13-3.168-7.13-7.129c0-3.917,3.168-7.13,7.13-7.13c3.917,0,7.13,3.213,7.13,7.13
			C37.319,134.899,34.106,138.067,30.189,138.067z M34.003,417.495h-8.001c-0.278,0-0.5,0.223-0.5,0.5v9.501H20
			c-0.195,0-0.389,0.111-0.472,0.306c-0.056,0.195-0.028,0.417,0.111,0.556l10.002,10.002c0.111,0.083,0.222,0.139,0.361,0.139
			c0.14,0,0.25-0.056,0.361-0.139l10.002-10.002c0.14-0.139,0.167-0.361,0.111-0.556c-0.083-0.194-0.277-0.306-0.473-0.306h-5.501
			v-9.501C34.503,417.718,34.281,417.495,34.003,417.495z M42.109,529.386c3.195-3.195,3.195-8.335,0-11.495
			c-3.16-3.195-8.3-3.195-11.495,0l-4.654,4.653c-3.16,3.161-3.16,8.301,0,11.496c0.729,0.729,1.91,0.729,2.64,0
			c0.764-0.729,0.764-1.91,0-2.64c-1.702-1.736-1.702-4.48,0-6.216l4.688-4.654c1.702-1.702,4.48-1.702,6.182,0
			c1.702,1.702,1.702,4.48,0,6.182l-2.223,2.257c0.556,1.494,0.765,3.057,0.626,4.654L42.109,529.386z M19.5,443
			c0,0.278,0.222,0.5,0.5,0.5h20.003c0.278,0,0.501-0.222,0.501-0.5v-2c0-0.278-0.223-0.5-0.501-0.5H20c-0.278,0-0.5,0.223-0.5,0.5
			V443z M16.862,543.139c3.195,3.16,8.334,3.16,11.495,0l4.688-4.688c3.161-3.16,3.161-8.3,0-11.496
			c-0.729-0.729-1.944-0.729-2.674,0c-0.729,0.729-0.729,1.945,0,2.674c1.736,1.702,1.736,4.48,0,6.182l-4.654,4.654
			c-1.702,1.702-4.48,1.702-6.182,0s-1.702-4.48,0-6.182l2.223-2.223c-0.556-1.494-0.764-3.091-0.625-4.688l-4.271,4.271
			C13.701,534.804,13.701,539.943,16.862,543.139z M13.491,618.674v3.667c0,0.324,0.117,0.599,0.353,0.824
			c0.235,0.225,0.506,0.337,0.814,0.337h30.685c0.325,0,0.601-0.112,0.827-0.337c0.226-0.225,0.339-0.5,0.339-0.824v-3.667
			c0-0.306-0.113-0.576-0.339-0.81c-0.227-0.234-0.502-0.351-0.827-0.351H14.658c-0.308,0-0.579,0.117-0.814,0.351
			C13.608,618.098,13.491,618.368,13.491,618.674z M16.862,343.139c3.195,3.16,8.334,3.16,11.495,0l8.439-8.439
			c1.945-1.945,1.945-5.105,0-7.084c-1.944-1.945-5.105-1.945-7.084,0l-5.279,5.313c-0.764,0.729-0.764,1.91,0,2.639
			c0.729,0.764,1.91,0.764,2.639,0l5.314-5.279c0.486-0.486,1.284-0.486,1.771,0c0.486,0.486,0.486,1.285,0,1.771l-8.439,8.404
			c-1.702,1.702-4.48,1.702-6.182,0s-1.702-4.48,0-6.182l13.752-13.753c1.702-1.702,4.48-1.702,6.182,0
			c1.702,1.702,1.702,4.48,0,6.182l-0.104,0.104c0.833,1.181,1.319,2.535,1.389,3.924l1.354-1.354c3.195-3.195,3.195-8.335,0-11.495
			c-3.16-3.195-8.3-3.195-11.495,0l-13.752,13.752C13.701,334.804,13.701,339.943,16.862,343.139z M16.341,1738.624
			c0,0.173,0.069,0.312,0.173,0.451l4.411,4.41c0.139,0.104,0.278,0.174,0.452,0.174c0.173,0,0.312-0.069,0.451-0.174l7.675-7.675
			l7.675,7.675c0.14,0.104,0.278,0.174,0.452,0.174c0.173,0,0.312-0.069,0.451-0.174l4.41-4.41c0.104-0.139,0.174-0.278,0.174-0.451
			c0-0.174-0.069-0.312-0.174-0.452l-7.675-7.675l7.675-7.675c0.104-0.14,0.174-0.278,0.174-0.452c0-0.173-0.069-0.312-0.174-0.451
			l-4.41-4.41c-0.139-0.104-0.278-0.174-0.451-0.174c-0.174,0-0.312,0.069-0.452,0.174l-7.675,7.675l-7.675-7.675
			c-0.139-0.104-0.278-0.174-0.451-0.174c-0.174,0-0.312,0.069-0.452,0.174l-4.411,4.41c-0.104,0.139-0.173,0.278-0.173,0.451
			c0,0.174,0.069,0.312,0.173,0.452l7.675,7.675l-7.675,7.675C16.41,1738.312,16.341,1738.45,16.341,1738.624z M43.825,731.47
			c-1.69-0.019-3.717,0.131-5.918,0.449c-1.008-0.585-2.072-1.226-2.915-2.022c-2.139-2.017-3.931-4.817-5.043-7.957
			c0.076-0.301,0.149-0.594,0.216-0.891c0.31-1.405,0.53-6.048,0.53-6.048s-0.879,3.488-1.017,4.015
			c-0.089,0.333-0.201,0.69-0.328,1.061c-0.675-2.396-1.018-4.719-1.018-6.48c0-0.499,0.042-1.465,0.182-2.23
			c0.068-0.546,0.266-0.83,0.469-0.968c0.403,0.099,0.852,0.722,1.322,1.764c0.404,0.901,0.379,1.946,0.379,2.592
			c0,0,0.433-1.601,0.333-2.546c-0.061-0.567-0.597-2.028-1.733-2.01H29.19l-0.505-0.007c-0.831,0-1.607,0.411-1.795,1.088
			c-0.698,2.597,0.083,6.614,1.385,11.619l-0.395,0.968c-0.997,2.454-2.242,4.899-3.338,7.068
			c-4.524,8.94-8.043,13.764-10.39,14.101l-0.01-0.097c-0.051-1.115,1.988-3.991,4.751-6.277c0.288-0.236,1.516-1.437,1.516-1.437
			s-1.66,0.886-2.032,1.113c-3.461,2.087-5.184,4.178-5.465,5.565c-0.083,0.413-0.028,0.919,0.332,1.126l0.885,0.45
			c2.409,1.218,5.371-1.983,9.309-8.954c4.008-1.328,9.008-2.579,13.561-3.256c4.075,2.352,8.75,3.471,10.546,2.987
			c0.342-0.091,0.702-0.362,0.886-0.612c0.144-0.229,0.344-1.149,0.344-1.149s-0.337,0.467-0.615,0.604
			c-1.137,0.542-4.725-0.362-8.408-2.182c3.185-0.343,5.838-0.357,7.256,0.101c1.801,0.58,1.801,1.176,1.776,1.297
			c0.024-0.1,0.106-0.499,0.097-0.669c-0.042-0.437-0.174-0.825-0.501-1.148C47.714,731.834,46.067,731.5,43.825,731.47z
			 M23.8,735.668c0.682-1.224,1.42-2.556,2.176-3.993c1.463-2.794,2.35-4.95,3.096-6.979c1.176,2.389,2.799,4.659,4.927,6.479
			c0.475,0.406,0.979,0.789,1.498,1.151C31.632,733.051,27.572,734.072,23.8,735.668z M31.876,223.137
			c0.853,0,1.58-0.281,2.186-0.844c0.604-0.562,0.907-1.244,0.907-2.044c0-0.799-0.303-1.483-0.907-2.052
			c-0.605-0.568-1.333-0.852-2.186-0.852s-1.584,0.284-2.194,0.852c-0.61,0.568-0.916,1.252-0.916,2.052
			c0,0.8,0.305,1.481,0.916,2.044C30.292,222.856,31.023,223.137,31.876,223.137z M44.279,625.525H15.721
			c-0.326,0-0.606,0.117-0.841,0.351c-0.235,0.234-0.353,0.513-0.353,0.837v16.639c0,0.306,0.118,0.576,0.353,0.81
			c0.235,0.233,0.516,0.351,0.841,0.351h28.558c0.325,0,0.605-0.118,0.841-0.351c0.234-0.234,0.353-0.504,0.353-0.81v-16.639
			c0-0.324-0.118-0.603-0.353-0.837C44.885,625.643,44.604,625.525,44.279,625.525z M36.565,632.516
			c-0.353,0.342-0.773,0.252-1.262,0.252v0.261H24.696c-0.489,0-0.905-0.171-1.248-0.513c-0.344-0.342-0.516-0.756-0.516-1.242
			c0-0.486,0.172-0.899,0.516-1.242c0.343-0.342,0.759-0.513,1.248-0.513h10.607c0.488,0,0.909,0.171,1.262,0.513
			c0.353,0.342,0.529,0.756,0.529,1.242C37.095,631.76,36.918,632.174,36.565,632.516z M24.333,227.02l-0.348,1.42
			c0.252-0.095,0.556-0.195,0.91-0.3c0.354-0.105,0.699-0.158,1.037-0.158c0.686,0,1.15,0.116,1.393,0.347s0.364,0.642,0.364,1.23
			c0,0.327-0.04,0.687-0.118,1.081c-0.079,0.395-0.177,0.813-0.293,1.255l-1.303,4.608c-0.116,0.484-0.2,0.918-0.252,1.302
			c-0.053,0.384-0.079,0.76-0.079,1.128c0,0.947,0.35,1.728,1.05,2.344c0.699,0.615,1.681,0.923,2.943,0.923
			c0.82,0,1.541-0.107,2.162-0.323s1.452-0.529,2.493-0.939l0.348-1.42c-0.179,0.084-0.468,0.182-0.867,0.292
			s-0.756,0.166-1.071,0.166c-0.673,0-1.146-0.111-1.419-0.332c-0.273-0.221-0.409-0.636-0.409-1.247c0-0.242,0.042-0.6,0.126-1.073
			c0.085-0.473,0.18-0.894,0.285-1.262l1.298-4.593c0.126-0.42,0.213-0.884,0.261-1.389c0.047-0.505,0.071-0.857,0.071-1.058
			c0-0.967-0.34-1.754-1.02-2.359c-0.679-0.605-1.646-0.908-2.899-0.908c-0.695,0-1.433,0.124-2.212,0.371
			C26.001,226.375,25.186,226.672,24.333,227.02z M41.956,1817.793c-0.243-0.242-0.659-0.242-0.902,0l-13.301,13.336l-5.8-5.834
			c-0.243-0.243-0.66-0.243-0.903,0l-4.375,4.376c-0.243,0.243-0.243,0.66,0,0.902l10.627,10.628
			c0.139,0.104,0.278,0.173,0.452,0.173c0.173,0,0.312-0.069,0.451-0.173l18.128-18.129c0.243-0.243,0.243-0.66,0-0.903
			L41.956,1817.793z"/>
	</g>
</g>
<g>
</g>
<g>
</g>
<g>
</g>
<g>
</g>
<g>
</g>
<g>
</g>
<g>
</g>
<g>
</g>
<g>
</g>
<g>
</g>
<g>
</g>
<g>
</g>
<g>
</g>
<g>
</g>
<g>
</g>
</svg>
