<?xml version="1.0" encoding="utf-8"?>
<!-- Generator: Adobe Illustrator 16.0.0, SVG Export Plug-In . SVG Version: 6.00 Build 0)  -->
<!DOCTYPE svg PUBLIC "-//W3C//DTD SVG 1.1//EN" "http://www.w3.org/Graphics/SVG/1.1/DTD/svg11.dtd">
<svg version="1.1" id="Layer_1" xmlns="http://www.w3.org/2000/svg" xmlns:xlink="http://www.w3.org/1999/xlink" x="0px" y="0px"
	 width="180px" height="40px" viewBox="0 0 180 40" enable-background="new 0 0 180 40" xml:space="preserve">
<g>
	<path fill="#333333" d="M2.841,15.819l5.85,11.676h1.589l5.874-11.676v13.145h2.841V12.136H14.59L9.509,22.705L4.43,12.136H0
		v16.828h2.841V15.819z"/>
	<path fill="#333333" d="M25.086,21.452v-9.316h-2.84v9.437c0,2.425,0.666,4.29,1.998,5.598c1.332,1.309,3.041,1.962,5.127,1.962
		c2.087,0,3.796-0.653,5.128-1.962c1.332-1.308,1.999-3.173,1.999-5.598v-9.437h-2.841v9.316c0,1.541-0.385,2.762-1.155,3.66
		c-0.771,0.898-1.814,1.349-3.13,1.349c-1.316,0-2.359-0.45-3.129-1.349S25.086,22.993,25.086,21.452L25.086,21.452z"/>
	<path fill="#333333" d="M39.748,28.964h2.841v-4.719l2.456-2.647l5.586,7.366H54l-6.861-9.461l6.765-7.367h-3.611l-7.705,8.208
		v-8.208h-2.841V28.964z"/>
	<path fill="#333333" d="M69.216,20.43c0,1.693-0.574,3.133-1.721,4.321c-1.147,1.188-2.556,1.782-4.225,1.782
		c-1.669,0-3.078-0.595-4.226-1.782c-1.147-1.188-1.721-2.628-1.721-4.321s0.574-3.134,1.721-4.322
		c1.147-1.188,2.556-1.782,4.226-1.782c1.669,0,3.078,0.595,4.225,1.782C68.642,17.296,69.216,18.736,69.216,20.43z M72.129,20.43
		c0-2.48-0.851-4.551-2.552-6.212c-1.702-1.662-3.804-2.492-6.308-2.492s-4.606,0.831-6.308,2.492
		c-1.701,1.661-2.552,3.731-2.552,6.212s0.851,4.55,2.552,6.212c1.702,1.66,3.804,2.49,6.308,2.49s4.606-0.83,6.308-2.49
		C71.279,24.979,72.129,22.91,72.129,20.43z"/>
	<path fill="#333333" d="M77.354,15.819l5.85,11.676h1.59l5.874-11.676v13.145h2.842V12.136h-4.406l-5.081,10.569l-5.08-10.569
		h-4.43v16.828h2.841V15.819z"/>
	<path fill="#333333" d="M96.975,12.136v16.828h12.109v-2.672h-9.268v-4.503h8.064v-2.528h-8.064v-4.454h8.979v-2.671H96.975z"/>
	<path fill="#333333" d="M122.036,28.964v-2.696h-7.68V12.136h-2.84v16.828H122.036z"/>
	<path fill="#333333" d="M139.515,16.192c-0.706-1.276-1.669-2.299-2.888-3.07l1.709-3.683h-2.406l-1.302,2.744
		c-0.963-0.305-1.934-0.458-2.912-0.458c-2.505,0-4.607,0.831-6.309,2.492c-1.701,1.661-2.553,3.728-2.553,6.199
		c0,1.654,0.394,3.15,1.181,4.49c0.786,1.342,1.861,2.38,3.227,3.118l-1.758,3.755h2.406l1.373-2.936
		c0.771,0.191,1.581,0.287,2.433,0.287c2.503,0,4.605-0.83,6.307-2.49c1.701-1.662,2.552-3.735,2.552-6.225
		C140.574,18.876,140.221,17.468,139.515,16.192z M133.521,14.615l-5.104,10.93c-0.818-0.561-1.466-1.292-1.938-2.192
		c-0.475-0.896-0.712-1.868-0.712-2.911c0-1.701,0.574-3.146,1.723-4.333c1.146-1.188,2.555-1.782,4.226-1.782
		C132.341,14.326,132.943,14.422,133.521,14.615L133.521,14.615z M135.94,24.751c-1.147,1.188-2.558,1.782-4.225,1.782
		c-0.419,0-0.852-0.041-1.301-0.121l5.032-10.762c1.476,1.236,2.213,2.833,2.213,4.792C137.66,22.126,137.088,23.562,135.94,24.751z
		"/>
	<path fill="#333333" d="M157.402,12.136h-3.177l-5.178,12.566l-5.175-12.566h-3.178l6.766,16.828h3.178L157.402,12.136z"/>
</g>
<g>
</g>
<g>
</g>
<g>
</g>
<g>
</g>
<g>
</g>
<g>
</g>
<g>
</g>
<g>
</g>
<g>
</g>
<g>
</g>
<g>
</g>
<g>
</g>
<g>
</g>
<g>
</g>
<g>
</g>
</svg>
