<?xml version="1.0" encoding="utf-8"?>
<!-- Generator: Adobe Illustrator 16.0.0, SVG Export Plug-In . SVG Version: 6.00 Build 0)  -->
<!DOCTYPE svg PUBLIC "-//W3C//DTD SVG 1.1//EN" "http://www.w3.org/Graphics/SVG/1.1/DTD/svg11.dtd">
<svg version="1.1" xmlns="http://www.w3.org/2000/svg" xmlns:xlink="http://www.w3.org/1999/xlink" x="0px" y="0px" width="280px"
	 height="60px" viewBox="0 0 280 60" enable-background="new 0 0 280 60" xml:space="preserve">
<g id="LOGOS">
	<g id="Schock" display="none">
		<path display="inline" fill="#333333" d="M49.221,20.936c-0.731-0.295-1.031-0.39-1.703-0.615
			c-1.484-0.451-2.654-0.647-3.956-0.641c-2.552,0.007-4.497,0.888-5.535,2.496c-0.673,1.056-1.031,2.325-1.031,3.657
			c0.015,1.903,0.753,3.294,2.237,4.203c0.943,0.567,2.047,0.993,3.78,1.466c1.389,0.369,1.952,0.699,2.273,1.311
			c0.131,0.256,0.205,0.557,0.205,0.867c0,1.164-1.017,2.047-2.333,2.047c-1.184,0.012-2.361-0.436-3.926-1.461
			c-0.76-0.5-1.046-0.721-1.762-1.324l0.015,5.414l0.3,0.164c1.769,0.982,2.712,1.408,3.604,1.619
			c0.533,0.123,1.141,0.182,1.769,0.182c2.113-0.008,3.919-0.67,5.366-1.988c1.448-1.355,2.289-3.205,2.289-5.09
			c0-1.357-0.46-2.675-1.243-3.632c-0.768-0.938-1.652-1.415-3.539-1.939c-1.067-0.302-1.798-0.503-2.186-0.63
			c-0.475-0.123-0.892-0.312-1.235-0.531c-0.315-0.219-0.505-0.561-0.505-0.982c0-0.327,0.117-0.677,0.322-0.92
			c0.351-0.448,0.929-0.662,1.806-0.662c1.403-0.005,2.661,0.392,5,1.604L49.221,20.936L49.221,20.936z"/>
		<path display="inline" fill="#333333" d="M96.129,20.585l0.059,18.872l5.557-0.008l-0.014-7.729l6.221-0.021l0.022,7.736
			l5.563-0.021L113.5,20.542l-5.585,0.022l0.022,6.753l-6.223,0.012l-0.014-6.75L96.129,20.585L96.129,20.585z"/>
		<path display="inline" fill="#333333" d="M196.314,20.587l0.059,18.872l5.468-0.016l-0.014-7.734l6.134,7.725l7.025-0.018
			l-8.488-9.375l8.643-9.501l-7.129,0.021l-6.185,7.787l-0.037-7.779L196.314,20.587L196.314,20.587z"/>
		<path display="inline" fill="#333333" d="M80.25,20.915c-0.651-0.295-0.914-0.394-1.44-0.557
			c-0.943-0.284-1.908-0.415-2.991-0.415c-6.134,0.018-10.469,4.243-10.447,10.186c0.015,2.721,0.921,5.145,2.596,6.971
			c1.871,1.998,4.255,2.963,7.333,2.955c1.279-0.008,2.405-0.178,3.443-0.523c0.606-0.207,0.87-0.328,1.536-0.678l-0.015-5.352
			c-0.584,0.494-0.848,0.666-1.455,0.992c-1.046,0.557-1.894,0.809-2.888,0.809c-1.447,0-2.625-0.506-3.583-1.557
			c-0.906-0.982-1.367-2.186-1.367-3.596c0-1.434,0.49-2.823,1.345-3.8c0.929-1.04,2.201-1.593,3.722-1.593
			c1.045-0.012,1.967,0.251,2.888,0.8c0.504,0.31,0.753,0.499,1.324,1.034V20.915L80.25,20.915z"/>
		<path display="inline" fill="#333333" d="M179.871,20.949c-0.672-0.316-0.921-0.429-1.447-0.582
			c-0.936-0.302-1.982-0.451-3.085-0.451c-6.076,0.015-10.47,4.312-10.456,10.232c0,2.715,0.922,5.16,2.618,6.973
			c1.85,2,4.299,2.969,7.398,2.961c1.294,0,2.435-0.178,3.45-0.527c0.549-0.189,0.82-0.307,1.551-0.678l-0.015-5.34
			c-0.592,0.479-0.833,0.646-1.462,0.975c-1.023,0.578-1.908,0.811-2.917,0.811c-1.44,0-2.618-0.502-3.562-1.547
			c-0.92-0.984-1.367-2.186-1.367-3.598c0-1.44,0.483-2.824,1.353-3.799c0.915-1.048,2.179-1.598,3.708-1.598
			c1.06-0.008,2.025,0.266,2.895,0.808c0.445,0.262,0.695,0.448,1.338,1.033V20.949L179.871,20.949z"/>
		<path display="inline" fill="#333333" d="M139.703,19.891c-2.938,0-5.277,0.782-7.179,2.358c-2.216,1.867-3.378,4.534-3.363,7.795
			c0,3.06,1.082,5.774,2.939,7.478c1.819,1.656,4.481,2.596,7.369,2.588c6.353-0.014,10.813-4.246,10.799-10.226
			c0-2.715-0.892-5.105-2.56-6.899C145.662,20.779,143.322,19.876,139.703,19.891 M139.857,24.607
			c2.902-0.008,4.854,2.146,4.869,5.381c0,2.078-0.855,3.855-2.318,4.721c-0.73,0.443-1.674,0.67-2.653,0.678
			c-1.93,0-3.619-0.914-4.423-2.424c-0.446-0.867-0.702-1.9-0.702-3.018c0-1.994,0.899-3.748,2.391-4.625
			C137.803,24.848,138.783,24.607,139.857,24.607"/>
		<path display="inline" fill="#333333" d="M242.951,19.75l-14.702,10.291l14.754,10.207L242.951,19.75L242.951,19.75z"/>
	</g>
	<g id="RocheBobois">
		<path fill="#333333" d="M44.198,21.438v3.052h0.072c0.242-0.574,0.498-0.97,0.911-1.46c0.412-0.49,0.745-0.8,1.279-1.146
			s1.052-0.473,1.703-0.596c0.703-0.132,2.062-0.13,2.717-0.13v7.152c-0.209-0.054-0.71-0.05-1.025-0.05
			c-0.947,0-1.764-0.002-2.495,0.312c-0.667,0.287-1.21,0.618-1.686,1.174c-0.437,0.511-0.63,0.914-0.8,1.632
			c-0.17,0.717-0.118,1.926-0.118,2.763v5.854h-7.756V21.438H44.198z"/>
		<path fill="#333333" d="M52.208,26.696c0.505-1.207,1.222-2.236,2.152-3.086c0.93-0.85,2.045-1.508,3.347-1.975
			s2.763-0.7,4.384-0.7c1.619,0,3.088,0.233,4.402,0.7c1.315,0.467,2.438,1.125,3.367,1.975s1.647,1.879,2.152,3.086
			c0.504,1.209,0.757,2.555,0.757,4.038c0,1.484-0.253,2.824-0.757,4.021c-0.505,1.196-1.223,2.22-2.152,3.068
			c-0.93,0.85-2.052,1.502-3.367,1.956c-1.314,0.454-2.783,0.683-4.402,0.683c-1.621,0-3.082-0.229-4.384-0.683
			s-2.417-1.106-3.347-1.956c-0.931-0.849-1.647-1.872-2.152-3.068s-0.757-2.536-0.757-4.021
			C51.451,29.251,51.703,27.905,52.208,26.696z M59.052,32.525c0.102,0.554,0.275,1.053,0.521,1.494
			c0.246,0.442,0.572,0.794,0.979,1.058c0.406,0.264,0.915,0.395,1.525,0.395c0.611,0,1.124-0.131,1.539-0.395
			c0.416-0.264,0.746-0.615,0.992-1.058c0.246-0.441,0.42-0.94,0.521-1.494c-0.063,0.344,0.152-0.243,0.152-1.707
			c0-0.582-0.051-1.155-0.152-1.719c-0.102-0.564-0.275-1.062-0.521-1.495s-0.576-0.784-0.992-1.057
			c-0.415-0.272-0.928-0.409-1.539-0.409c-0.61,0-1.119,0.137-1.525,0.409c-0.407,0.272-0.733,0.624-0.979,1.057
			s-0.42,0.931-0.521,1.495c-0.102,0.563-0.152,1.137-0.152,1.719C58.899,31.401,58.95,31.971,59.052,32.525z"/>
		<path fill="#333333" d="M94.854,32.889c-0.38,2.464-1.465,4.342-3.256,5.635c-1.792,1.292-4.085,1.938-6.88,1.938
			c-1.574,0-3.02-0.233-4.335-0.7c-1.316-0.467-2.437-1.118-3.358-1.957c-0.923-0.837-1.643-1.835-2.157-2.997
			c-0.516-1.159-0.773-2.434-0.773-3.822c0-1.436,0.237-2.769,0.712-4.001s1.174-2.298,2.097-3.194
			c0.922-0.898,2.049-1.598,3.379-2.101c1.329-0.502,2.849-0.754,4.559-0.754c1.248,0,2.449,0.145,3.603,0.432
			s2.185,0.724,3.094,1.31c0.909,0.587,1.648,1.316,2.219,2.189c0.569,0.873,0.896,1.908,0.977,3.104l0.04,0.821h-7.334
			c-0.256-1.652-1.216-2.478-2.878-2.478c-0.622,0-1.143,0.145-1.562,0.432c-0.421,0.287-0.764,0.659-1.028,1.113
			c-0.265,0.455-0.452,0.956-0.562,1.503c-0.11,0.547-0.165,1.09-0.165,1.628c0,0.521,0.055,1.049,0.165,1.587
			c0.109,0.538,0.288,1.025,0.534,1.461c0.247,0.437,0.58,0.794,1.001,1.072c0.42,0.278,0.932,0.417,1.534,0.417
			c0.933,0,1.649-0.264,2.152-0.793c0.502-0.528,0.817-1.238,0.945-2.129h7.279V32.889z"/>
		<path fill="#333333" d="M113.604,39.995h-4.021v-9.273c0-1.354-0.188-2.366-0.565-3.032c-0.378-0.667-1.048-1.001-2.011-1.001
			c-1.095,0-1.888,0.365-2.378,1.097c-0.491,0.729-0.736,1.932-0.736,3.604v8.606h-5.944h-1.292V15.104h7.647v8.919h0.109
			c0.655-1.076,1.493-1.86,2.513-2.351s2.015-0.736,2.986-0.736c1.384,0,2.519,0.187,3.405,0.557
			c0.886,0.371,1.584,0.886,2.095,1.544c0.51,0.658,0.867,1.459,1.074,2.404c0.206,0.945,0.31,1.992,0.31,3.141v11.414H113.604z"/>
		<path fill="#333333" d="M129.533,36.172c1.668,0.003,2.58-0.746,2.81-1.345h7.079c-0.837,2.225-2.078,3.19-3.572,4.198
			c-1.638,1.104-3.823,1.437-6.278,1.437c-1.702,0-3.237-0.233-4.604-0.7s-2.525-1.131-3.474-1.992s-1.681-1.89-2.197-3.087
			c-0.517-1.196-0.774-2.513-0.774-3.948c0-1.387,0.266-2.68,0.796-3.876c0.529-1.196,1.283-2.231,2.26-3.104
			c0.977-0.874,2.141-1.562,3.495-2.064c1.353-0.502,2.853-0.754,4.499-0.754c1.842,0,3.445,0.306,4.812,0.916
			c1.367,0.609,2.49,1.43,3.369,2.458c0.88,1.029,1.514,2.202,1.905,3.518c0.39,1.316,0.529,2.991,0.418,4.428h-14.145
			C126.016,33.905,127.067,36.168,129.533,36.172z M131.943,26.167c-0.516-0.582-1.299-0.874-2.351-0.874
			c-0.688,0-1.259,0.12-1.714,0.359s-0.818,0.536-1.092,0.889c-0.272,0.354-0.466,0.729-0.576,1.123
			c-0.111,0.396-0.178,0.749-0.197,1.061h7.007C132.818,27.602,132.459,26.749,131.943,26.167z"/>
		<path fill="#333333" d="M145.815,14.943v9.338h0.072c0.496-1.002,1.277-1.731,2.342-2.187c1.064-0.454,2.236-0.682,3.514-0.682
			c1.42,0,2.654,0.257,3.707,0.77c1.055,0.514,1.93,1.206,2.627,2.081c0.697,0.874,1.225,1.883,1.58,3.025
			c0.354,1.143,0.531,2.354,0.531,3.637s-0.172,2.495-0.514,3.638c-0.344,1.143-0.863,2.14-1.562,2.99
			c-0.697,0.852-1.572,1.521-2.625,2.011s-2.277,0.734-3.674,0.734c-0.449,0-0.953-0.047-1.508-0.14
			c-0.557-0.094-1.105-0.245-1.65-0.454c-0.545-0.211-1.059-0.496-1.543-0.857c-0.486-0.361-0.895-0.81-1.225-1.347h-0.072v2.413
			H142.8V14.943H145.815z M156.657,28.25c-0.225-0.804-0.566-1.521-1.029-2.15c-0.461-0.629-1.053-1.131-1.773-1.504
			c-0.723-0.372-1.568-0.56-2.537-0.56c-1.018,0-1.881,0.198-2.592,0.595c-0.709,0.396-1.289,0.915-1.738,1.557
			c-0.449,0.641-0.775,1.369-0.977,2.186s-0.301,1.644-0.301,2.482c0,0.887,0.105,1.744,0.318,2.571
			c0.213,0.828,0.551,1.556,1.012,2.186s1.059,1.137,1.793,1.521c0.732,0.385,1.619,0.577,2.662,0.577
			c1.041,0,1.91-0.198,2.607-0.595c0.697-0.396,1.26-0.921,1.686-1.574c0.426-0.652,0.732-1.398,0.924-2.237
			c0.188-0.84,0.283-1.702,0.283-2.589C156.995,29.877,156.882,29.055,156.657,28.25z"/>
		<path fill="#333333" d="M162.435,27.167c0.379-1.155,0.945-2.157,1.703-3.009c0.758-0.851,1.691-1.521,2.805-2.011
			c1.111-0.489,2.389-0.734,3.832-0.734c1.467,0,2.75,0.245,3.852,0.734c1.1,0.489,2.027,1.16,2.785,2.011
			c0.756,0.852,1.324,1.854,1.703,3.009c0.379,1.153,0.568,2.395,0.568,3.724s-0.189,2.565-0.568,3.707
			c-0.379,1.143-0.947,2.14-1.703,2.991c-0.758,0.851-1.686,1.516-2.785,1.993c-1.102,0.478-2.385,0.717-3.852,0.717
			c-1.443,0-2.721-0.239-3.832-0.717c-1.113-0.478-2.047-1.143-2.805-1.993c-0.758-0.852-1.324-1.849-1.703-2.991
			c-0.379-1.142-0.566-2.378-0.566-3.707S162.056,28.32,162.435,27.167z M165.505,33.812c0.295,0.852,0.703,1.562,1.225,2.134
			c0.52,0.57,1.129,1.009,1.826,1.311c0.699,0.304,1.438,0.455,2.219,0.455s1.52-0.151,2.219-0.455
			c0.697-0.302,1.307-0.74,1.828-1.311c0.52-0.571,0.928-1.282,1.223-2.134c0.297-0.851,0.443-1.824,0.443-2.921
			c0-1.095-0.146-2.068-0.443-2.92c-0.295-0.851-0.703-1.567-1.223-2.151c-0.521-0.582-1.131-1.025-1.828-1.329
			c-0.699-0.302-1.438-0.454-2.219-0.454s-1.52,0.152-2.219,0.454c-0.697,0.304-1.307,0.747-1.826,1.329
			c-0.521,0.584-0.93,1.301-1.225,2.151c-0.297,0.852-0.443,1.825-0.443,2.92C165.062,31.987,165.208,32.961,165.505,33.812z"/>
		<path fill="#333333" d="M185.313,14.943v9.338h0.07c0.498-1.002,1.279-1.731,2.344-2.187c1.064-0.454,2.234-0.682,3.514-0.682
			c1.418,0,2.654,0.257,3.707,0.77c1.053,0.514,1.928,1.206,2.627,2.081c0.697,0.874,1.223,1.883,1.578,3.025
			s0.533,2.354,0.533,3.637s-0.172,2.495-0.516,3.638c-0.342,1.143-0.863,2.14-1.561,2.99c-0.697,0.852-1.574,1.521-2.627,2.011
			s-2.277,0.734-3.672,0.734c-0.449,0-0.953-0.047-1.508-0.14c-0.557-0.094-1.107-0.245-1.65-0.454
			c-0.545-0.211-1.061-0.496-1.545-0.857s-0.893-0.81-1.225-1.347h-0.07v2.413h-3.016V14.943H185.313z M196.155,28.25
			c-0.225-0.804-0.568-1.521-1.029-2.15c-0.461-0.629-1.053-1.131-1.773-1.504c-0.723-0.372-1.568-0.56-2.539-0.56
			c-1.016,0-1.879,0.198-2.59,0.595c-0.709,0.396-1.289,0.915-1.738,1.557c-0.449,0.641-0.775,1.369-0.977,2.186
			s-0.301,1.644-0.301,2.482c0,0.887,0.105,1.744,0.318,2.571c0.213,0.828,0.551,1.556,1.012,2.186s1.059,1.137,1.793,1.521
			c0.732,0.385,1.619,0.577,2.66,0.577s1.91-0.198,2.609-0.595c0.697-0.396,1.26-0.921,1.686-1.574
			c0.426-0.652,0.732-1.398,0.922-2.237c0.189-0.84,0.285-1.702,0.285-2.589C196.493,29.877,196.38,29.055,196.155,28.25z"/>
		<path fill="#333333" d="M201.933,27.167c0.377-1.155,0.945-2.157,1.703-3.009c0.756-0.851,1.691-1.521,2.803-2.011
			s2.391-0.734,3.834-0.734c1.467,0,2.75,0.245,3.85,0.734s2.029,1.16,2.785,2.011c0.758,0.852,1.326,1.854,1.705,3.009
			c0.377,1.153,0.566,2.395,0.566,3.724s-0.189,2.565-0.566,3.707c-0.379,1.143-0.947,2.14-1.705,2.991
			c-0.756,0.851-1.686,1.516-2.785,1.993s-2.383,0.717-3.85,0.717c-1.443,0-2.723-0.239-3.834-0.717s-2.047-1.143-2.803-1.993
			c-0.758-0.852-1.326-1.849-1.703-2.991c-0.379-1.142-0.568-2.378-0.568-3.707S201.554,28.32,201.933,27.167z M205.001,33.812
			c0.297,0.852,0.705,1.562,1.225,2.134c0.52,0.57,1.131,1.009,1.828,1.311c0.697,0.304,1.438,0.455,2.219,0.455
			c0.779,0,1.52-0.151,2.217-0.455c0.697-0.302,1.307-0.74,1.828-1.311c0.52-0.571,0.928-1.282,1.225-2.134
			c0.295-0.851,0.443-1.824,0.443-2.921c0-1.095-0.148-2.068-0.443-2.92c-0.297-0.851-0.705-1.567-1.225-2.151
			c-0.521-0.582-1.131-1.025-1.828-1.329c-0.697-0.302-1.438-0.454-2.217-0.454c-0.781,0-1.521,0.152-2.219,0.454
			c-0.697,0.304-1.309,0.747-1.828,1.329c-0.52,0.584-0.928,1.301-1.225,2.151c-0.295,0.852-0.443,1.825-0.443,2.92
			C204.558,31.987,204.706,32.961,205.001,33.812z"/>
		<path fill="#333333" d="M221.808,18.58v-3.637h3.018v3.637H221.808z M224.825,21.833v18.081h-3.018V21.833H224.825z"/>
		<path fill="#333333" d="M230.897,35.874c0.283,0.455,0.656,0.817,1.117,1.085c0.461,0.269,0.98,0.461,1.562,0.577
			c0.578,0.117,1.176,0.175,1.791,0.175c0.473,0,0.971-0.035,1.49-0.104c0.52-0.07,1-0.198,1.438-0.385s0.799-0.461,1.082-0.822
			c0.285-0.361,0.426-0.822,0.426-1.382c0-0.769-0.295-1.352-0.887-1.748s-1.33-0.718-2.219-0.962
			c-0.887-0.245-1.852-0.467-2.891-0.665c-1.043-0.197-2.006-0.478-2.893-0.839c-0.889-0.361-1.627-0.868-2.219-1.521
			c-0.592-0.652-0.887-1.562-0.887-2.728c0-0.909,0.207-1.69,0.621-2.344c0.414-0.652,0.945-1.183,1.596-1.591
			c0.652-0.408,1.385-0.712,2.201-0.91c0.816-0.197,1.627-0.297,2.432-0.297c1.039,0,1.998,0.088,2.873,0.263
			s1.65,0.478,2.326,0.909c0.674,0.432,1.211,1.014,1.613,1.748s0.639,1.65,0.711,2.746h-3.018
			c-0.047-0.582-0.201-1.067-0.461-1.451c-0.26-0.386-0.592-0.693-0.994-0.928c-0.402-0.232-0.846-0.401-1.33-0.507
			c-0.486-0.104-0.977-0.157-1.473-0.157c-0.451,0-0.906,0.035-1.367,0.105c-0.461,0.069-0.881,0.191-1.26,0.366
			c-0.379,0.176-0.686,0.409-0.922,0.7s-0.355,0.671-0.355,1.137c0,0.513,0.184,0.938,0.551,1.276
			c0.365,0.338,0.834,0.618,1.4,0.839c0.568,0.222,1.207,0.408,1.918,0.561c0.709,0.151,1.418,0.309,2.129,0.472
			c0.756,0.163,1.496,0.361,2.217,0.595c0.723,0.233,1.361,0.542,1.918,0.927c0.555,0.385,1.004,0.869,1.348,1.451
			c0.344,0.583,0.516,1.307,0.516,2.168c0,1.097-0.232,2.006-0.693,2.729s-1.064,1.306-1.811,1.749
			c-0.744,0.442-1.584,0.752-2.52,0.927c-0.934,0.175-1.861,0.262-2.785,0.262c-1.018,0-1.986-0.104-2.91-0.314
			c-0.922-0.21-1.738-0.554-2.449-1.032c-0.709-0.477-1.277-1.106-1.703-1.889c-0.426-0.78-0.662-1.73-0.709-2.85h3.016
			C230.458,34.866,230.612,35.42,230.897,35.874z"/>
		<path fill="#333333" d="M182.155,45.559h2.789c0.449,0,0.814,0.064,1.098,0.192c0.285,0.128,0.502,0.288,0.656,0.479
			c0.152,0.192,0.258,0.401,0.314,0.628c0.057,0.228,0.084,0.438,0.084,0.629c0,0.192-0.027,0.4-0.084,0.624
			s-0.162,0.432-0.314,0.624c-0.154,0.192-0.371,0.351-0.656,0.476c-0.283,0.125-0.648,0.188-1.098,0.188h-1.682v2.392h-1.107
			V45.559z M183.263,48.509h1.621c0.123,0,0.25-0.018,0.379-0.053c0.131-0.034,0.25-0.092,0.359-0.17
			c0.109-0.079,0.197-0.184,0.266-0.314s0.102-0.295,0.102-0.493c0-0.204-0.029-0.372-0.088-0.506s-0.139-0.24-0.238-0.318
			c-0.102-0.079-0.217-0.133-0.346-0.161c-0.131-0.029-0.27-0.044-0.416-0.044h-1.639V48.509z"/>
		<path fill="#333333" d="M197.952,45.559h1.178l2.436,6.231h-1.186l-0.594-1.649h-2.523l-0.594,1.649h-1.143L197.952,45.559z
			 M197.563,49.312h1.93l-0.947-2.68h-0.027L197.563,49.312z"/>
		<path fill="#333333" d="M211.022,45.559h3.02c0.697,0,1.219,0.148,1.568,0.445c0.348,0.297,0.521,0.71,0.521,1.239
			c0,0.297-0.045,0.543-0.133,0.737c-0.088,0.195-0.191,0.353-0.311,0.472c-0.117,0.119-0.234,0.205-0.35,0.257
			c-0.115,0.053-0.199,0.088-0.252,0.105v0.018c0.096,0.012,0.197,0.04,0.307,0.087c0.107,0.046,0.209,0.12,0.305,0.223
			c0.094,0.102,0.172,0.234,0.234,0.396c0.062,0.163,0.094,0.366,0.094,0.611c0,0.366,0.027,0.7,0.084,0.999
			c0.057,0.3,0.143,0.514,0.262,0.642h-1.188c-0.082-0.134-0.131-0.282-0.146-0.445c-0.014-0.163-0.021-0.32-0.021-0.471
			c0-0.285-0.018-0.531-0.053-0.738c-0.035-0.206-0.102-0.378-0.195-0.515s-0.223-0.236-0.385-0.301
			c-0.164-0.064-0.371-0.096-0.625-0.096h-1.629v2.565h-1.107V45.559z M212.13,48.396h1.814c0.355,0,0.623-0.084,0.807-0.249
			c0.182-0.166,0.273-0.415,0.273-0.746c0-0.198-0.029-0.359-0.088-0.484s-0.141-0.223-0.244-0.293
			c-0.104-0.069-0.221-0.115-0.354-0.139s-0.27-0.035-0.412-0.035h-1.797V48.396z"/>
		<path fill="#333333" d="M226.112,45.559h1.105v6.231h-1.105V45.559z"/>
		<path fill="#333333" d="M238.155,49.713c0,0.238,0.041,0.442,0.123,0.61c0.084,0.169,0.197,0.308,0.346,0.415
			c0.146,0.107,0.316,0.187,0.51,0.235c0.191,0.05,0.4,0.074,0.623,0.074c0.242,0,0.449-0.027,0.621-0.083
			c0.17-0.055,0.309-0.126,0.416-0.214c0.105-0.087,0.182-0.188,0.23-0.301c0.047-0.113,0.07-0.229,0.07-0.345
			c0-0.238-0.055-0.414-0.164-0.527c-0.109-0.114-0.229-0.193-0.357-0.24c-0.225-0.082-0.486-0.158-0.785-0.231
			c-0.297-0.073-0.664-0.167-1.102-0.283c-0.271-0.07-0.498-0.162-0.678-0.275s-0.322-0.24-0.43-0.38
			c-0.105-0.14-0.182-0.288-0.227-0.444c-0.043-0.157-0.064-0.317-0.064-0.48c0-0.314,0.064-0.586,0.199-0.816
			c0.131-0.229,0.307-0.42,0.525-0.571c0.219-0.15,0.467-0.263,0.744-0.336c0.277-0.072,0.559-0.109,0.842-0.109
			c0.33,0,0.641,0.043,0.934,0.127s0.549,0.211,0.77,0.38c0.223,0.169,0.398,0.376,0.527,0.624c0.131,0.247,0.195,0.533,0.195,0.859
			h-1.107c-0.029-0.401-0.168-0.686-0.416-0.851c-0.248-0.166-0.562-0.249-0.947-0.249c-0.129,0-0.262,0.013-0.398,0.039
			c-0.135,0.026-0.26,0.069-0.371,0.131c-0.113,0.062-0.205,0.145-0.279,0.249s-0.111,0.235-0.111,0.393
			c0,0.222,0.07,0.395,0.209,0.519c0.139,0.126,0.32,0.22,0.543,0.284c0.025,0.006,0.117,0.03,0.279,0.074
			c0.164,0.043,0.344,0.092,0.545,0.145c0.201,0.052,0.396,0.103,0.59,0.152c0.191,0.049,0.328,0.086,0.412,0.109
			c0.205,0.063,0.385,0.151,0.539,0.262s0.281,0.237,0.385,0.379c0.104,0.144,0.18,0.296,0.23,0.458
			c0.051,0.164,0.076,0.326,0.076,0.489c0,0.35-0.072,0.647-0.217,0.895s-0.336,0.449-0.572,0.606s-0.504,0.271-0.805,0.345
			c-0.301,0.072-0.609,0.108-0.922,0.108c-0.359,0-0.699-0.043-1.018-0.13c-0.318-0.088-0.598-0.222-0.832-0.402
			c-0.236-0.18-0.426-0.411-0.568-0.693c-0.141-0.282-0.215-0.615-0.221-0.999H238.155z"/>
	</g>
	<g id="Moree" display="none">
		<path display="inline" fill="#333333" d="M117.64,23.144c-2.085-1.965-4.559-2.944-7.444-2.93
			c-1.615,0.013-3.162,0.377-4.627,1.082c-1.475,0.72-2.705,1.69-3.687,2.928c-1.034-1.245-2.281-2.213-3.744-2.897
			c-1.459-0.689-3.009-1.03-4.646-1.023c-2.876,0.021-5.354,1.023-7.415,3.012c-2.062,1.995-3.088,4.391-3.076,7.183l0.061,10.089
			c1.218-0.002,2.247-0.42,3.099-1.254c0.841-0.836,1.262-1.836,1.257-3.016l-0.037-5.84c-0.003-1.667,0.581-3.11,1.775-4.324
			c1.192-1.212,2.647-1.812,4.365-1.822c1.726-0.016,3.172,0.58,4.375,1.776c1.194,1.204,1.805,2.635,1.809,4.302l0.033,5.844
			c0.007,1.16,0.441,2.152,1.309,2.986c0.859,0.822,1.892,1.244,3.091,1.236l-0.054-10.087c-0.011-1.67,0.578-3.115,1.766-4.319
			c1.193-1.212,2.651-1.821,4.374-1.833c1.717-0.008,3.171,0.585,4.366,1.787c1.197,1.199,1.803,2.626,1.811,4.299l0.037,5.841
			c0.008,1.166,0.441,2.15,1.306,2.986c0.859,0.828,1.896,1.246,3.095,1.234l-0.063-10.09
			C120.763,27.501,119.714,25.11,117.64,23.144z"/>
		<path display="inline" fill="#333333" d="M134,20.089c-2.886,0.016-5.357,1.019-7.413,3.011c-2.062,1.991-3.077,4.384-3.059,7.184
			c0.018,2.797,1.058,5.172,3.14,7.125c2.08,1.949,4.556,2.92,7.445,2.9c2.881-0.008,5.353-1,7.417-2.986
			c2.064-1.967,3.088-4.359,3.067-7.154c-0.013-2.794-1.062-5.182-3.147-7.145C139.364,21.054,136.882,20.069,134,20.089z
			 M138.447,34.486c-1.185,1.193-2.637,1.801-4.357,1.809c-1.723,0.01-3.179-0.582-4.381-1.77c-1.189-1.17-1.799-2.598-1.804-4.265
			c-0.012-1.671,0.578-3.108,1.758-4.322c1.186-1.214,2.633-1.819,4.359-1.833c1.719-0.003,3.178,0.586,4.377,1.782
			c1.209,1.204,1.815,2.634,1.828,4.307C140.232,31.861,139.642,33.297,138.447,34.486z"/>
		<path display="inline" fill="#333333" d="M157.662,19.949c-2.885,0.01-5.365,1.009-7.428,2.983
			c-2.068,1.98-3.094,4.371-3.082,7.172l0.061,10.132c1.197-0.002,2.23-0.424,3.082-1.258c0.855-0.848,1.283-1.846,1.275-3.01
			l-0.037-5.892c-0.008-1.675,0.584-3.101,1.779-4.305c1.189-1.19,2.648-1.794,4.371-1.805l2.004-0.008
			c1.148-0.005,2.121-0.398,2.924-1.189c0.803-0.785,1.203-1.734,1.197-2.837L157.662,19.949z"/>
		<path display="inline" fill="#333333" d="M175.209,36.076l-2.01,0.01c-1.701,0.008-3.156-0.586-4.365-1.77
			c-1.197-1.193-1.809-2.613-1.816-4.271c-0.012-1.653,0.582-3.084,1.77-4.304c1.191-1.222,2.645-1.835,4.346-1.84l2.004-0.014
			c1.152-0.01,2.123-0.409,2.941-1.193c0.811-0.786,1.215-1.735,1.211-2.853l-6.178,0.037c-2.885,0.018-5.359,1.019-7.414,3.012
			c-2.057,1.995-3.074,4.386-3.059,7.184c0.021,2.788,1.061,5.177,3.143,7.128c2.078,1.949,4.559,2.916,7.441,2.902l6.18-0.037
			c-0.012-1.113-0.42-2.053-1.242-2.83C177.334,36.453,176.357,36.068,175.209,36.076z"/>
		<path display="inline" fill="#333333" d="M170.225,28.553c-0.385,0.39-0.578,0.873-0.58,1.447c0.002,0.561,0.211,1.037,0.613,1.41
			c0.402,0.381,0.889,0.568,1.459,0.564l3.471-0.014c1.146-0.012,2.119-0.406,2.938-1.188c0.809-0.783,1.215-1.736,1.211-2.86
			l-7.645,0.043C171.107,27.967,170.619,28.157,170.225,28.553z"/>
		<path display="inline" fill="#333333" d="M189.426,28.448c-0.385,0.39-0.578,0.875-0.576,1.453
			c0.004,0.562,0.213,1.03,0.609,1.407c0.4,0.379,0.889,0.564,1.457,0.561l3.469-0.016c1.148-0.008,2.125-0.402,2.941-1.189
			c0.814-0.775,1.213-1.732,1.207-2.845l-7.641,0.036C190.307,27.853,189.812,28.057,189.426,28.448z"/>
		<path display="inline" fill="#333333" d="M194.41,35.975l-2.01,0.008c-1.701,0.012-3.158-0.59-4.363-1.77
			c-1.207-1.193-1.812-2.613-1.828-4.264c-0.002-1.654,0.586-3.092,1.779-4.309c1.195-1.225,2.645-1.835,4.344-1.846l2.006-0.012
			c1.154-0.003,2.135-0.402,2.953-1.188c0.797-0.788,1.195-1.74,1.195-2.855l-6.172,0.04c-2.887,0.006-5.365,1.014-7.416,3.007
			c-2.057,1.993-3.07,4.386-3.061,7.186c0.02,2.789,1.064,5.17,3.145,7.127c2.078,1.949,4.559,2.916,7.443,2.906l6.176-0.035
			c-0.01-1.115-0.42-2.059-1.238-2.844C196.535,36.348,195.559,35.965,194.41,35.975z"/>
		<path display="inline" fill="#333333" d="M204.055,21c0.111-0.14,0.17-0.323,0.176-0.548c-0.006-0.162-0.039-0.294-0.105-0.403
			c-0.059-0.096-0.15-0.185-0.268-0.254c-0.098-0.062-0.205-0.101-0.332-0.124c-0.113-0.021-0.252-0.033-0.406-0.033l-0.926,0.01
			l0.016,2.912v0.042l0.48-0.011l-0.006-1.137l0.492-0.004l0.992,1.138l0.621-0.004l-1.133-1.277
			C203.82,21.233,203.957,21.128,204.055,21z M203.73,20.479c-0.006,0.119-0.018,0.199-0.039,0.25
			c-0.027,0.065-0.07,0.125-0.125,0.177c-0.059,0.051-0.137,0.092-0.211,0.112c-0.094,0.018-0.203,0.026-0.322,0.026l-0.35,0.009
			l-0.006-1.005l0.42,0.003c0.107-0.001,0.197,0.003,0.266,0.019c0.072,0.008,0.137,0.038,0.189,0.062
			c0.068,0.056,0.109,0.101,0.135,0.147C203.713,20.331,203.725,20.39,203.73,20.479z"/>
		<path display="inline" fill="#333333" d="M203.236,18.578c-1.5,0.014-2.719,1.211-2.719,2.672c0.01,1.455,1.238,2.639,2.736,2.639
			h0.012c1.506-0.014,2.727-1.212,2.721-2.67C205.986,19.763,204.754,18.578,203.236,18.578z M203.262,23.392l-0.008,0.248v-0.248
			c-1.217,0-2.215-0.963-2.225-2.144c0-1.187,0.992-2.161,2.213-2.173c1.23,0,2.232,0.962,2.232,2.146
			C205.479,22.406,204.486,23.38,203.262,23.392z"/>
	</g>
	<g id="Alveus" display="none">
		<path display="inline" fill-rule="evenodd" clip-rule="evenodd" fill="#333333" d="M76.207,19.501c0.083,0,0.167,0,0.251,0
			c0.624,0.044,0.916,0.364,1.172,0.798c0.734,1.243,1.469,2.454,2.2,3.664c1.991,3.292,3.893,6.49,5.895,9.744
			c0.479,0.778,0.96,1.612,1.471,2.439c0.242,0.392,0.497,0.805,0.741,1.213c0.252,0.422,0.526,0.825,0.706,1.25
			c0.113,0.266,0.183,0.526,0.144,0.809c-0.04,0.285-0.165,0.456-0.347,0.631c-0.322,0.308-0.868,0.596-1.423,0.345
			c-0.431-0.194-0.69-0.597-0.945-1.011c-0.77-1.253-1.48-2.401-2.236-3.629c-1.496-2.433-2.937-4.87-4.436-7.294
			c-0.997-1.612-1.958-3.245-2.954-4.866c-0.046-0.074-0.074-0.118-0.131-0.178c-3.144,5.306-6.363,10.604-9.506,15.907
			c-0.238,0.401-0.494,0.844-0.909,1.047c-0.533,0.26-1.125,0.044-1.471-0.25c-0.373-0.317-0.543-0.869-0.347-1.451
			c0.071-0.212,0.206-0.425,0.335-0.643c0.838-1.422,1.746-2.9,2.571-4.271c0.989-1.646,1.944-3.293,2.917-4.902
			c1.718-2.842,3.428-5.707,5.13-8.554C75.278,19.891,75.604,19.531,76.207,19.501z"/>
		<path display="inline" fill-rule="evenodd" clip-rule="evenodd" fill="#333333" d="M94.681,19.501c0.112,0,0.223,0,0.335,0
			c0.627,0.111,1.116,0.562,1.184,1.226c0.037,0.362,0.012,0.773,0.012,1.178c0,5.216,0,10.45,0,15.622c0.012,0,0.024,0,0.036,0
			c4.711,0,9.4,0,14.086,0c0.315,0,0.636-0.021,0.944,0c0.547,0.039,0.924,0.386,1.112,0.762c0.392,0.78-0.079,1.569-0.658,1.832
			c-0.224,0.102-0.479,0.119-0.825,0.119c-5.334,0-10.647,0-15.963,0c-0.316,0-0.564-0.065-0.765-0.179
			c-0.382-0.215-0.685-0.592-0.694-1.178c-0.009-0.582,0-1.223,0-1.868c0-4.974,0-9.952,0-14.955c0-0.604-0.082-1.313,0.12-1.749
			C93.804,19.877,94.126,19.611,94.681,19.501z"/>
		<path display="inline" fill-rule="evenodd" clip-rule="evenodd" fill="#333333" d="M132.502,19.501c0.036,0,0.072,0,0.107,0
			c0.435,0.05,0.774,0.246,1.017,0.512c0.241,0.265,0.366,0.699,0.251,1.178c-0.046,0.194-0.136,0.353-0.239,0.523
			c-0.287,0.477-0.594,1.005-0.849,1.439c-0.376,0.641-0.769,1.27-1.148,1.904c-2.869,4.798-5.703,9.565-8.574,14.313
			c-0.197,0.325-0.369,0.681-0.646,0.88c-0.308,0.222-0.808,0.311-1.255,0.202c-0.402-0.097-0.631-0.352-0.837-0.69
			c-1.531-2.516-3.026-5.061-4.592-7.614c-0.385-0.627-0.767-1.258-1.148-1.892c-1.534-2.551-3.073-5.071-4.604-7.603
			c-0.182-0.301-0.374-0.615-0.562-0.964c-0.164-0.304-0.38-0.743-0.287-1.189c0.079-0.378,0.393-0.656,0.706-0.821
			c0.171-0.091,0.382-0.163,0.598-0.166c0.683-0.013,1.059,0.532,1.328,0.963c0.195,0.314,0.398,0.636,0.585,0.94
			c3.084,5.02,6.112,10.084,9.243,15.169c2.595-4.366,5.253-8.756,7.856-13.135c0.52-0.874,1.107-1.842,1.638-2.725
			c0.111-0.186,0.205-0.385,0.323-0.56C131.65,19.816,132.014,19.555,132.502,19.501z"/>
		<path display="inline" fill-rule="evenodd" clip-rule="evenodd" fill="#333333" d="M164.68,19.501c0.115,0,0.23,0,0.347,0
			c0.514,0.104,0.843,0.362,1.04,0.75c0.113,0.222,0.144,0.453,0.144,0.749c0,4.72,0.001,9.512,0,14.206
			c0,0.295-0.019,0.589,0.024,0.857c0.074,0.472,0.412,0.791,0.777,0.999c0.39,0.223,0.85,0.354,1.363,0.416
			c0.545,0.067,1.135,0.048,1.733,0.048c3.574,0,7.126,0,10.702,0c0.598,0,1.181,0.013,1.722-0.06
			c0.524-0.07,0.981-0.19,1.363-0.428c0.355-0.222,0.666-0.564,0.741-1.035c0.043-0.269,0.012-0.583,0.012-0.881
			c0-4.672,0.036-9.426,0.035-14.158c0-0.845,0.457-1.309,1.197-1.464c0.111,0,0.223,0,0.334,0c0.557,0.096,0.985,0.467,1.137,0.987
			c0.08,0.28,0.047,0.643,0.047,1.012c0,4.627-0.023,9.155-0.023,13.718c0,0.771-0.005,1.375-0.18,1.928
			c-0.165,0.523-0.427,0.987-0.766,1.356c-0.974,1.064-2.568,1.737-4.615,1.737c-3.555,0-7.082,0-10.63,0
			c-1.438,0-2.884,0.058-4.03-0.214c-1.149-0.274-2.072-0.787-2.714-1.523c-0.333-0.382-0.599-0.821-0.765-1.356
			c-0.172-0.547-0.191-1.163-0.191-1.928c-0.002-4.567,0-9.152,0-13.729c0-0.369-0.022-0.722,0.059-1
			C163.709,19.928,164.062,19.65,164.68,19.501z"/>
		<path display="inline" fill-rule="evenodd" clip-rule="evenodd" fill="#333333" d="M140.92,22.487
			c-0.028,1.963-0.004,3.978-0.012,5.961c0.002,0.01,0.012,0.012,0.012,0.023c5.049,0,10.147,0,15.234,0
			c0.402,0,0.808-0.039,1.123,0.048c0.293,0.081,0.529,0.245,0.706,0.464c0.173,0.214,0.315,0.494,0.312,0.856
			c-0.01,0.673-0.486,1.149-1.041,1.297c-0.315,0.084-0.721,0.048-1.124,0.048c-5.053,0-10.175,0-15.222,0c0,2.103,0,4.204,0,6.306
			c0,0.009,0,0.017,0,0.024c5.344,0.021,10.602,0.012,15.939,0.012c0.366,0,0.705-0.008,1.004,0c0.312,0.009,0.545,0.11,0.742,0.25
			c0.326,0.231,0.703,0.728,0.549,1.392c-0.112,0.492-0.493,0.892-0.968,1.023c-0.266,0.074-0.602,0.048-0.944,0.048
			c-5.57,0-11.378,0-16.944,0c-0.393,0-0.718,0.021-0.981-0.024c-0.515-0.09-0.911-0.458-1.064-0.928
			c-0.078-0.238-0.06-0.556-0.06-0.928c0-5.577,0-11.234,0-16.871c0-0.35,0.005-0.637,0.108-0.881
			c0.194-0.461,0.624-0.764,1.196-0.833c0.201-0.023,0.424,0,0.646,0c5.709,0,11.435,0,17.146,0c0.449,0,0.832,0.001,1.125,0.144
			c0.271,0.132,0.499,0.357,0.633,0.63c0.357,0.728-0.053,1.466-0.525,1.749c-0.129,0.077-0.289,0.149-0.455,0.179
			c-0.181,0.032-0.393,0.012-0.621,0.012C151.95,22.487,146.422,22.487,140.92,22.487z"/>
		<path display="inline" fill-rule="evenodd" clip-rule="evenodd" fill="#333333" d="M216.001,32.505c0,1.222,0,2.443,0,3.665
			c-0.026,0.359-0.11,0.745-0.228,1.083c-0.551,1.583-1.961,2.483-3.706,2.832c-0.729,0.146-1.569,0.154-2.476,0.154
			c-5.294,0-10.484,0-15.748,0c-0.234,0-0.412-0.009-0.586-0.06c-0.492-0.145-0.842-0.501-0.957-1.012
			c-0.181-0.811,0.361-1.422,0.957-1.594c0.322-0.093,0.817-0.048,1.256-0.048c4.812,0,9.633,0,14.433,0
			c0.884,0,1.775,0.04,2.511-0.107c0.727-0.146,1.357-0.418,1.662-0.963c0.077-0.138,0.143-0.297,0.156-0.488
			c0.013-0.191,0-0.414,0-0.654c-0.001-0.445,0-0.903,0-1.309c-0.001-0.463,0.031-0.901,0-1.31
			c-0.029-0.367-0.223-0.657-0.443-0.868c-0.434-0.415-1.147-0.616-1.973-0.643c-0.832-0.025-1.777,0-2.631,0
			c-3.425,0-7.088,0-10.498,0c-1.698,0-3.066-0.443-4.055-1.189c-0.758-0.573-1.312-1.333-1.506-2.415
			c-0.067-0.378-0.072-0.778-0.072-1.237c0-0.883-0.045-1.777,0.013-2.594c0.054-0.779,0.302-1.446,0.646-1.964
			c0.691-1.041,1.82-1.666,3.336-1.903c0.771-0.121,1.627-0.107,2.511-0.107c4.825,0,9.64,0,14.433,0
			c0.432,0,0.928-0.027,1.232,0.084c0.551,0.201,1.08,0.861,0.836,1.665c-0.147,0.487-0.529,0.834-1.016,0.94
			c-0.183,0.04-0.387,0.023-0.634,0.023c-5.233,0-10.532,0-15.748,0c-1.31,0-2.405,0.236-2.774,1.154
			c-0.121,0.302-0.107,0.767-0.107,1.202c0,0.401,0,0.859,0,1.309c0,0.458-0.012,0.887,0.131,1.178
			c0.277,0.56,0.884,0.855,1.604,1.011c0.733,0.16,1.611,0.131,2.499,0.131c3.463,0,6.982,0,10.499,0
			c0.932,0,1.759-0.013,2.511,0.107C214.282,28.935,215.787,30.157,216.001,32.505z"/>
	</g>
	<g id="Kikkerland" display="none">
		<path display="inline" fill-rule="evenodd" clip-rule="evenodd" fill="#333333" d="M255.53,14.009
			c3.008-0.386,5.512,1.602,5.469,4.705c-0.025,1.949-1.18,3.624-2.66,4.333c-2.891,1.384-6.441-0.509-6.799-3.66
			c-0.262-2.315,0.898-4.014,2.291-4.854C254.278,14.262,254.821,14.1,255.53,14.009z M252.501,17.071
			c-1.127,2.785,0.904,5.361,3.029,5.677c1.746,0.259,3.818-0.649,4.508-2.54c1.17-3.201-1.385-5.95-4.359-5.527
			C254.108,14.904,252.938,15.994,252.501,17.071z"/>
		<path display="inline" fill-rule="evenodd" clip-rule="evenodd" fill="#333333" d="M254.423,16.023
			c1.957-0.033,4.367-0.257,3.99,1.869c-0.068,0.39-0.445,0.798-1.035,0.896c0.805,0.332,0.998,1.386,1.041,2.488h-0.951
			c0.107-1.663-0.545-2.108-2.158-2.04c0,0.673,0.004,1.367,0.004,2.04h-0.891V16.023z M255.31,18.565
			c1.363,0,2.279-0.226,2.268-1.05c-0.012-0.826-1.477-0.845-2.268-0.818C255.31,17.32,255.31,17.942,255.31,18.565z"/>
		<path display="inline" fill-rule="evenodd" clip-rule="evenodd" fill="#333333" d="M34.067,20.433c0,1.692,0,3.386,0,5.079
			l4.286-5.079c1.576,0,3.217,0,4.793,0c0,0,0.01-0.013,0,0l-5.015,6.274c2.644,4.448,5.417,8.766,8.055,13.22
			c-1.552,0-3.104,0-4.656,0c-2.052-3.253-6.133-9.784-6.133-9.784l-1.33,1.644c0,2.714,0,5.427,0,8.141c-1.354,0-2.709,0-4.064,0
			V20.433C31.333,20.433,32.737,20.433,34.067,20.433z"/>
		<path display="inline" fill-rule="evenodd" clip-rule="evenodd" fill="#333333" d="M53.206,20.433c1.33,0,2.734,0,4.064,0
			c0,6.498,0,12.996,0,19.494c-1.354,0-2.709,0-4.064,0C53.206,33.504,53.206,26.856,53.206,20.433L53.206,20.433z"/>
		<path display="inline" fill-rule="evenodd" clip-rule="evenodd" fill="#333333" d="M71.753,20.433c0,1.668,0,3.336,0,5.004
			l4.286-5.004c1.552,0,3.273,0,4.825,0c0,0-3.627,4.491-5.046,6.274c2.561,4.457,5.548,8.882,7.981,13.22c-1.503,0-3.005,0-4.508,0
			l-6.281-9.784l-1.256,1.644c0,0,0,2.942,0,4.107c0,1.447,0,2.826,0,4.033c-1.354,0-2.709,0-4.064,0V20.433
			C69.02,20.433,70.423,20.433,71.753,20.433z"/>
		<path display="inline" fill-rule="evenodd" clip-rule="evenodd" fill="#333333" d="M96.287,20.433c0,1.692,0,5.079,0,5.079
			l4.286-5.079c1.577,0,3.286,0,4.862,0c0,0,0.008-0.011,0,0l-5.084,6.274c2.661,4.432,5.426,8.756,8.055,13.22
			c-1.552,0-3.104,0-4.655,0c-2.044-3.262-6.133-9.784-6.133-9.784l-1.331,1.644c0,2.714,0,5.427,0,8.141c-1.354,0-2.709,0-4.064,0
			c0,0,0-16.796,0-19.494C93.553,20.433,94.957,20.433,96.287,20.433z"/>
		<path display="inline" fill-rule="evenodd" clip-rule="evenodd" fill="#333333" d="M117.199,20.433c3.695,0,7.463,0,11.158,0
			c0,1.369,0,2.738,0,4.108c-2.365,0-4.803,0-7.168,0v2.912c1.503,0,3.005,0,4.508,0c0,1.37,0,2.739,0,4.108
			c-1.478,0-3.03,0-4.508,0v4.258c3.375,0,6.75,0,10.124,0c0,1.369,0,2.738,0,4.107c-4.705,0-9.41,0-14.114,0V20.433z"/>
		<path display="inline" fill-rule="evenodd" clip-rule="evenodd" fill="#333333" d="M140.243,20.433
			c2.592-0.011,5.281-0.116,7.623,0.104c4.184,0.395,6.287,5.021,4.211,8.41c-0.332,0.543-0.814,0.783-1.182,1.419
			c1.314,3.153,2.625,6.448,3.967,9.573c-1.223-0.022-2.82,0-4.336-0.013c-1.201-2.77-2.383-5.558-3.547-8.365
			c-0.887,0-1.848,0-2.733,0l-0.002,8.365c-1.329,0-2.659,0-3.989,0C140.255,33.504,140.243,26.856,140.243,20.433
			C140.236,20.326,140.243,20.433,140.243,20.433z M148.839,25.994c0-1.768-2.611-1.457-4.593-1.453c0,0.005,0,0.005,0,0.005
			s0,2.319-0.002,2.907C146.403,27.461,148.839,27.657,148.839,25.994z"/>
		<path display="inline" fill-rule="evenodd" clip-rule="evenodd" fill="#333333" d="M163.458,20.433c1.33,0,2.734,0,4.064,0
			c0,5.104,0,10.208,0,15.312l10.271,0.017c0,1.37,0,2.797,0,4.166c-4.779,0-9.559,0-14.336,0V20.433L163.458,20.433z"/>
		<path display="inline" fill-rule="evenodd" clip-rule="evenodd" fill="#333333" d="M190.872,20.433c1.381,0,2.76,0,4.139,0
			l7.391,19.494c-1.479,0-2.957,0-4.436,0l-1.182-3.062h-7.832l-1.258,3.062c-1.428,0-2.855,0-4.285,0L190.872,20.433z
			 M190.134,32.831c1.799,0,3.596,0,5.395,0c-0.816-2.66-1.678-5.274-2.586-7.842C191.931,27.526,191.087,30.234,190.134,32.831z"/>
		<path display="inline" fill-rule="evenodd" clip-rule="evenodd" fill="#333333" d="M209.864,20.433h4.064l6.354,4.705
			c0-1.568,0-3.137,0-4.705c1.355,0,2.711,0,4.064,0c0,6.474,0,13.024,0,19.497l-4.064-0.003c0-3.112,0-6.299,0-9.41l-6.428-5.08
			v14.49h-4.064L209.864,20.433z"/>
		<path display="inline" fill-rule="evenodd" clip-rule="evenodd" fill="#333333" d="M233.679,20.421
			c1.957,0,4.154,0.012,6.408,0.012c2.207,0,4.617-0.348,6.207,0.224c0.994,0.358,1.945,1.317,2.291,2.241
			c0.299,0.799,0.295,2.304,0.295,3.511c0.002,1.242-0.072,2.564-0.072,3.66c0,2.385,0.133,5.021-0.148,7.096
			c-0.129,0.95-1.232,2-2.068,2.39c-1.486,0.691-4.094,0.373-6.281,0.373c-2.238,0-4.418,0-6.725,0c0-6.423,0-13.082,0-19.506
			H233.679z M237.649,24.765c0,3.685,0,7.369,0,11.055c1.104,0,2.199,0,3.398,0c0.969,0,2.502,0.195,3.104-0.373
			c0.803-0.76,0.592-3.277,0.592-5.08c0-1.599,0.455-3.9-0.223-5.004c-0.973-1.585-3.947-0.821-6.799-0.821
			C237.636,24.553,237.642,24.658,237.649,24.765z"/>
	</g>
</g>
<g id="Guides" display="none">
</g>
</svg>
