<?xml version="1.0" encoding="utf-8"?>
<!-- Generator: Adobe Illustrator 16.0.0, SVG Export Plug-In . SVG Version: 6.00 Build 0)  -->
<!DOCTYPE svg PUBLIC "-//W3C//DTD SVG 1.1//EN" "http://www.w3.org/Graphics/SVG/1.1/DTD/svg11.dtd">
<svg version="1.1" id="LOGOS" xmlns="http://www.w3.org/2000/svg" xmlns:xlink="http://www.w3.org/1999/xlink" x="0px" y="0px"
	 width="280px" height="60px" viewBox="0 0 280 60" enable-background="new 0 0 280 60" xml:space="preserve">
<g id="PocketBook">
	<path fill="#333333" d="M62.165,17.136l6.263-0.052c2.002-0.079,4.129,0.134,5.834,1.286c3.478,2.389,3.746,8.17,0.546,10.911
		c-2.028,1.85-4.953,2.238-7.581,1.882c-1.151-0.44-1.168-2.368,0.059-2.735c1.031-0.174,2.091-0.079,3.115-0.314
		c1.616-0.351,2.987-1.855,2.879-3.566c0.171-1.626-0.37-3.577-2.064-4.168c-2.146-0.608-4.417-0.219-6.615-0.321
		c-0.027,5.638,0,11.278-0.01,16.916c-0.034,1.818,0.049,2.301-1.849,2.368c-0.379,0.015-0.75-0.043-1.1-0.248
		c-0.534-0.269-0.553-0.949-0.576-1.47l-0.023-19.561C61.041,17.399,61.74,17.147,62.165,17.136L62.165,17.136z M110.289,17.633
		c0.469-0.711,1.369-0.501,2.127-0.508c0.704-0.005,0.988,0.676,0.993,1.245c0.035,3.761-0.035,7.52,0.037,11.28
		c1.63-0.392,2.474-1.92,3.537-3.055c0.933-0.992,1.676-2.199,2.82-2.962c0.69-0.231,1.262,0.008,1.72,0.43
		c0.716,0.66,1.052,1.001,0.459,1.673l-4.491,5.103c1.737,1.884,3.654,3.756,5.429,5.608c0.389,0.413,0.769,0.923,0.604,1.53
		c-0.344,0.828-1.243,1.411-2.14,1.371c-1.567-1.039-2.663-2.634-4.038-3.896c-1.211-1.11-2.13-2.781-3.897-3.034
		c-0.081,1.85,0.02,3.701-0.042,5.548c0.147,1.906-3.534,1.909-3.312-0.031c-0.033-6.213,0.021-12.427-0.022-18.64
		C110.116,18.745,109.998,18.13,110.289,17.633L110.289,17.633z M141.242,19.799c0.717-1.017,2.857-0.887,3.117,0.455
		c0.135,1.148,0.06,2.306,0.091,3.458c1.338-0.022,2.678-0.026,4.015-0.001c0.639,0.012,0.959,0.718,0.969,1.243
		c0.022,1.207-0.251,1.606-1.341,1.603l-3.665-0.007c0.011,2.607-0.041,5.214,0.011,7.822c0.004,0.87,0.29,1.92,1.188,2.263
		c1.267,0.45,2.623-0.057,3.923,0.11c0.954,0.579,1.018,2.227-0.145,2.587c-2.071,0.538-4.465,0.701-6.387-0.393
		c-1.512-0.838-1.953-2.69-1.969-4.291c0.032-3.925-0.023-7.851-0.005-11.774C141.062,21.851,140.932,20.791,141.242,19.799
		L141.242,19.799z M83.95,23.137c2.643-0.219,5.614,0.618,7.158,2.916c1.637,2.293,1.643,5.292,1.257,7.966
		c-0.438,2.727-2.556,5.052-5.284,5.606c-2.474,0.417-5.277,0.362-7.378-1.191c-1.688-1.202-2.478-3.28-2.706-5.271
		c-0.298-2.514,0.022-5.258,1.59-7.323C79.853,24.177,81.915,23.324,83.95,23.137L83.95,23.137z M83.679,26.127
		c-1.496,0.279-2.696,1.528-3.034,2.994c-0.497,1.995-0.493,4.292,0.612,6.096c1.168,1.857,3.825,2.084,5.681,1.23
		c1.672-0.906,2.143-2.966,2.211-4.719c-0.01-1.734-0.311-3.746-1.783-4.872C86.345,26.009,84.935,25.925,83.679,26.127
		L83.679,26.127z M126.338,25.221c2.013-1.993,5.16-2.562,7.837-1.803c1.658,0.432,3.128,1.597,3.792,3.193
		c0.381,0.743,0.883,2.759,0.855,4.231c-0.021,1.073-0.25,1.758-1.356,1.75l-9.885-0.077c0.178,1.615,0.988,3.471,2.634,4.043
		c1.935,0.614,4.028,0.261,5.956-0.223c1.395-0.449,2.482,0.652,1.966,1.939c-0.217,0.543-0.828,0.75-1.368,0.938
		c-1.085,0.375-2.216,0.514-3.354,0.587c-2.205,0.143-4.482,0.015-6.355-1.249c-2.146-1.385-2.978-4.076-2.936-6.522
		C123.998,29.602,124.623,27.018,126.338,25.221L126.338,25.221z M129.896,26.409c-1.384,0.583-2.021,2.058-2.216,3.455
		c2.579-0.029,5.156,0.103,7.729-0.087c-0.063-1.06-0.394-2.388-1.372-3.109C132.843,25.83,131.207,25.925,129.896,26.409
		L129.896,26.409z M100.175,23.365c2.346-0.398,4.869-0.219,7.069,0.737c0.826,0.36,0.893,1.323,0.45,1.97
		c-0.275,0.404-0.748,0.686-1.358,0.624c-1.2-0.123-2.364-0.612-3.585-0.627c-1.63-0.062-3.419,0.514-4.326,1.954
		c-1.24,2.029-1.299,4.675-0.295,6.812c0.488,0.888,1.316,1.624,2.321,1.852c1.981,0.468,3.997-0.022,5.938-0.454
		c1.509-0.311,2.134,2.352,0.707,2.758c-1.97,0.87-4.178,0.89-6.292,0.806c-2.359-0.11-4.8-1.303-5.88-3.481
		c-1.105-2.308-1.227-5.033-0.619-7.493C94.985,26.068,97.335,23.768,100.175,23.365L100.175,23.365z"/>
	<path fill="#333333" d="M152.759,17.621c0.448-0.655,1.336-0.514,2.019-0.557c2.085,0.026,4.168,0,6.256,0.02
		c1.989,0.046,4.12,0.395,5.681,1.721c1.623,1.354,2.107,3.739,1.495,5.706c-0.346,1.148-1.213,2.016-2.039,2.84
		c1.104,0.658,2.203,1.443,2.798,2.621c1.358,2.597,0.714,6.218-1.744,7.936c-1.976,1.448-4.534,1.462-6.877,1.43
		c-2.179-0.057-4.358,0.078-6.533-0.045c-0.733,0.05-1.277-0.643-1.212-1.337c-0.038-6.22,0.021-12.439-0.026-18.657
		C152.605,18.739,152.544,18.146,152.759,17.621L152.759,17.621z M156.123,20.015c-0.023,5.428-0.01,10.86-0.01,16.288
		c2.599-0.153,5.281,0.344,7.822-0.308c2.654-0.687,2.782-4.842,0.507-6.069c-1.618-1.024-3.592-0.451-5.368-0.772
		c-1.188-0.376-1.267-2.3-0.124-2.784c1.492-0.301,3.141,0.072,4.516-0.736c1.854-0.998,1.972-4.378-0.203-5.072
		C160.979,19.737,158.498,20.106,156.123,20.015L156.123,20.015z M205.447,18.644c-0.001-1.268,0.697-1.609,1.618-1.643
		c0.831-0.031,1.668,0.376,1.69,1.27c0.108,3.793-0.036,7.591,0.062,11.383c0.557-0.245,1.175-0.422,1.614-0.87
		c1.519-1.554,2.811-3.312,4.338-4.856c1.089-1.217,3.509,0.543,2.552,1.914c-1.396,1.705-2.958,3.271-4.397,4.945
		c1.665,1.844,3.424,3.599,5.145,5.392c0.358,0.425,0.83,0.841,0.89,1.438c-0.086,1.199-1.694,2.31-2.716,1.379
		c-1.973-1.847-3.71-3.939-5.694-5.784c-0.468-0.475-1.13-0.614-1.743-0.803c-0.099,2.055,0.132,4.127-0.105,6.175
		c-0.646,1.27-3.354,1.022-3.235-0.641L205.447,18.644L205.447,18.644z M176.808,23.353c2.521-0.501,5.414-0.242,7.411,1.525
		c1.967,1.662,2.609,4.371,2.562,6.849c-0.031,2.354-0.688,4.926-2.586,6.477c-2.053,1.705-4.925,1.872-7.452,1.457
		c-2.379-0.386-4.477-2.152-5.136-4.488c-0.831-2.864-0.799-6.166,0.774-8.776C173.339,24.809,175.016,23.742,176.808,23.353
		L176.808,23.353z M177.177,26.343c-1.426,0.498-2.26,1.95-2.491,3.373c-0.295,1.718-0.249,3.576,0.546,5.161
		c1.302,2.572,5.481,2.83,7.106,0.454c0.864-1.23,0.976-2.798,0.938-4.251c-0.039-1.458-0.383-3.058-1.519-4.069
		C180.528,25.915,178.681,25.862,177.177,26.343L177.177,26.343z M193.832,23.353c2.671-0.55,5.769-0.167,7.787,1.813
		c1.672,1.72,2.265,4.216,2.197,6.561c-0.012,2.361-0.68,4.943-2.59,6.486c-2.165,1.768-5.2,1.911-7.833,1.356
		c-2.216-0.473-4.083-2.176-4.731-4.35c-0.801-2.738-0.77-5.834,0.537-8.416C190.099,25.008,191.897,23.788,193.832,23.353
		L193.832,23.353z M194.444,26.268c-1.555,0.458-2.525,2-2.722,3.544c-0.243,1.737-0.228,3.635,0.633,5.212
		c1.134,2.054,4.055,2.434,5.979,1.338c1.455-0.899,1.927-2.723,2.006-4.327c0.051-1.689-0.131-3.591-1.371-4.859
		C197.82,25.98,195.962,25.849,194.444,26.268L194.444,26.268z"/>
</g>
<g>
</g>
<g>
</g>
<g>
</g>
<g>
</g>
<g>
</g>
<g>
</g>
<g>
</g>
<g>
</g>
<g>
</g>
<g>
</g>
<g>
</g>
<g>
</g>
<g>
</g>
<g>
</g>
<g>
</g>
</svg>
